<svg xmlns="http://www.w3.org/2000/svg" xmlns:xlink="http://www.w3.org/1999/xlink" preserveAspectRatio="xMidYMid" class="d-none hide">
    <g id="ga-facebook"><rect stroke="null" height="24" width="24" y="0" x="0" stroke-opacity="null" stroke-width="null" fill="#1877F2"/><path fill="#ffffff" d="M20,12.0488907 C20,7.60360785 16.4182812,4 12,4 C7.58171875,4 4,7.60360785 4,12.0488907 C4,16.0663247 6.92548437,19.396176 10.75,20 L10.75,14.3755232 L8.71875,14.3755232 L8.71875,12.0488907 L10.75,12.0488907 L10.75,10.2756195 C10.75,8.25836625 11.9443437,7.14409794 13.7717187,7.14409794 C14.6469844,7.14409794 15.5625,7.30130284 15.5625,7.30130284 L15.5625,9.28208454 L14.5537187,9.28208454 C13.5599219,9.28208454 13.25,9.9025251 13.25,10.5390477 L13.25,12.0488907 L15.46875,12.0488907 L15.1140625,14.3755232 L13.25,14.3755232 L13.25,20 C17.0745156,19.396176 20,16.0663247 20,12.0488907"/></g>
    <path id="ga-vkontakte" style="fill: #6383A8;" d="M0 0v24h24v-24h-24zm19.25 16.996h-2.133c-1.205 0-1.41-.687-2.402-1.679-.897-.897-1.394-.209-1.374 1.068.006.339-.161.611-.566.611-1.264 0-3.08.178-4.918-1.806-1.883-2.033-3.857-6.111-3.857-6.513 0-.237.196-.344.524-.344h2.17c.574 0 .623.284.783.649.667 1.521 2.265 4.574 2.69 2.87.244-.978.344-3.245-.703-3.44-.594-.11.452-.746 1.968-.746.377 0 .786.041 1.205.137.769.179.771.523.761 1.026-.039 1.903-.269 3.184.233 3.507.479.31 1.739-1.717 2.403-3.281.183-.433.22-.722.735-.722h2.655c1.389 0-.182 1.997-1.383 3.557-.968 1.255-.916 1.28.208 2.324.802.744 1.75 1.76 1.75 2.336.001.272-.211.446-.749.446z"/>
    <g id="ga-twitter"><path fill="#000" d="M0 0h24v24H0z"/><path fill="#FFF" d="M13.522 10.775 19.48 4h-1.412l-5.172 5.883L8.765 4H4l6.247 8.895L4 20h1.412l5.461-6.212L15.236 20H20l-6.478-9.225ZM11.6 13.278l-.625-.893L6 5.28h2.142l4.014 5.734.626.893L18 19.36h-2.142L11.6 13.278Z"/></g>
    <g fill="none" fill-rule="nonzero"><path fill="#000" d="M0 0h24v24H0z"/><path fill="#FFF" d="M13.332 10.928 18.544 5h-1.235l-4.526 5.147L9.17 5H5l5.466 7.784L5 19h1.235l4.78-5.436L14.83 19H19l-5.668-8.072Zm-1.199 1.888-.573-.76L7 6h1.963l3.68 4.887.573.76L18 18h-1.963l-3.904-5.183Z"/></g>
    <g id="ga-google"><rect stroke="null" height="24" width="24" y="0" x="0" stroke-opacity="null" stroke-width="null" fill="#ecebec"/><g fill="none" fill-rule="evenodd" transform="translate(4.000000, 4.000000)"><path fill="#4285F4" d="M15.7,8.2c0-0.6-0.1-1.1-0.1-1.6H8v3.1h4.3c-0.2,1-0.7,1.8-1.6,2.4v2h2.6C14.8,12.7,15.7,10.6,15.7,8.2L15.7,8.2z"/><path fill="#34A853" d="M8,16c2.2,0,4-0.7,5.3-1.9l-2.6-2C10,12.5,9.1,12.8,8,12.8c-2.1,0-3.8-1.4-4.5-3.3H0.9v2.1C2.2,14.2,4.9,16,8,16L8,16z"/><path fill="#FBBC05" d="M3.5,9.5C3.4,9,3.3,8.5,3.3,8s0.1-1,0.3-1.5V4.4H0.9C0.3,5.5,0,6.7,0,8s0.3,2.5,0.9,3.6L3.5,9.5L3.5,9.5z"/><path fill="#EA4335" d="M8,3.2c1.2,0,2.2,0.4,3.1,1.2l2.3-2.3C12,0.8,10.2,0,8,0C4.9,0,2.2,1.8,0.9,4.4l2.7,2.1C4.2,4.6,5.9,3.2,8,3.2L8,3.2z"/><path class="st4" d="M0,0h16v16H0V0z"/></g></g>
    <g id="ga-yandex"><path d="M0 0h24v24H0z" fill="#FC3F1D"/><path d="M13.455 6.855h-1.273c-2.182 0-3.273 1.012-3.273 2.53 0 1.687.728 2.53 2.364 3.543l1.273.843L8.909 19H6l3.455-4.723c-2-1.35-3.091-2.53-3.091-4.723 0-2.699 2-4.554 5.818-4.554H16v14h-2.545V6.855Z" fill="#FFF" fill-rule="nonzero"/></g>
    <g id="ga-mailru"><path fill="#07F" d="M0 0h24v24H0z"/><path fill="#FFF" d="M12 3c4.96 0 9 4.04 9 9 0 3.09-1.442 4.548-3.264 4.548a2.957 2.957 0 0 1-2.504-1.379A4.511 4.511 0 0 1 12 16.532 4.53 4.53 0 0 1 7.468 12 4.53 4.53 0 0 1 12 7.468 4.53 4.53 0 0 1 16.532 12v1.474c0 .744.523 1.267 1.204 1.267.808 0 1.474-.681 1.474-2.741A7.215 7.215 0 0 0 12 4.79 7.215 7.215 0 0 0 4.79 12 7.215 7.215 0 0 0 12 19.21c2.298 0 3.882-1.141 3.882-1.141l1.188 1.362S15.042 21 12 21c-4.96 0-9-4.04-9-9s4.04-9 9-9Zm-2.741 9A2.742 2.742 0 0 0 12 14.741 2.752 2.752 0 0 0 14.741 12 2.742 2.742 0 0 0 12 9.259 2.732 2.732 0 0 0 9.259 12Z"/></g>
    <g id="ga-odnoklassniki"><path fill="#EF7D00" d="M0 0h24v24H0z"/><path d="M14.39 13.013a.992.992 0 0 1 1.353.142.894.894 0 0 1-.149 1.294c-.045.034-.894.676-2.31.952l2.138 2.027c.376.36.376.942 0 1.302a.993.993 0 0 1-1.36 0l-2.075-1.933-1.886 1.921A.981.981 0 0 1 9.41 19a.982.982 0 0 1-.668-.258.892.892 0 0 1-.025-1.301l2.03-2.03c-1.303-.24-2.148-.793-2.344-.931l-.042-.031a.894.894 0 0 1-.148-1.294.992.992 0 0 1 1.352-.142c.009.007.933.671 2.423.672 1.49 0 2.395-.665 2.403-.672ZM12 5c2.21 0 4 1.748 4 3.905s-1.79 3.906-4 3.906-4-1.749-4-3.906S9.79 5 12 5Zm0 2.343c-.884 0-1.6.7-1.6 1.562 0 .863.716 1.562 1.6 1.562.884 0 1.6-.699 1.6-1.562 0-.862-.716-1.562-1.6-1.562Z" fill="#FFF" fill-rule="nonzero"/></g>
    <g id="ga-telegram"><rect width="24" height="24" fill="#27A7E7"/><path fill="#fff" d="M18.9 6.3a.9.9 0 0 0-.9-.1L5.3 11.2a.6.6 0 0 0 .1 1.1l2.9.9 1.1 3.5a.6.6 0 0 0 1 .3l1.6-1.6 2.8 2.1a.9.9 0 0 0 1.4-.5l2-9.2a.9.9 0 0 0-.3-.9zm-3.2 2.4-5.2 4.9a.4.4 0 0 0-.1.4l.5 1.8-1-3.2 5.7-3.9z"/></g>
</svg>
