<svg width="32" height="32" xmlns="http://www.w3.org/2000/svg"><g fill-rule="evenodd"><path d="M23.483 24.266l-.067.067a8.826 8.826 0 0 1-2.89 1.953 9.136 9.136 0 0 1-3.538.714 9.028 9.028 0 0 1-3.538-.714 8.978 8.978 0 0 1-2.89-1.953 8.934 8.934 0 0 1-1.954-2.88c-.313-.766-.514-1.47-.603-2.11-.03-.208.15-.342.536-.4.378-.06.587.014.624.222.007.008.01.022.01.045.135.67.306 1.26.514 1.774.372.923.938 1.764 1.697 2.523.73.73 1.57 1.294 2.522 1.696.982.417 2.01.625 3.08.625 1.065 0 2.09-.208 3.08-.625a7.96 7.96 0 0 0 2.512-1.696l.066-.067c.074-.075.167-.097.28-.067.088.022.21.104.367.245.268.276.33.49.19.648zm-5.268-6.864l-.736.736.702.704c.156.156.13.338-.078.546-.127.127-.246.19-.358.19-.074 0-.145-.037-.212-.11l-.692-.682-.736.736c-.037.038-.093.056-.168.056-.11 0-.226-.06-.346-.178l-.022-.023c-.134-.11-.2-.22-.2-.323 0-.053.03-.116.09-.19l.735-.726-.736-.736c-.12-.12-.068-.287.155-.502.134-.134.25-.2.346-.2.045 0 .094.017.146.054l.725.737.727-.724c.134-.127.312-.08.535.145.2.202.242.365.123.492zm5.257.636c0 .878-.17 1.726-.513 2.545a6.615 6.615 0 0 1-3.493 3.482 6.374 6.374 0 0 1-2.546.513c-.9 0-1.748-.17-2.544-.513a6.615 6.615 0 0 1-2.087-1.407 6.34 6.34 0 0 1-1.396-2.075c-.112-.24-.168-.387-.168-.447h-.01c-.068-.2.092-.364.48-.49.37-.12.594-.075.67.133.274.736.635 1.357 1.08 1.863h.013v-3.807c.02-1.012.4-1.875 1.137-2.59.78-.766 1.722-1.15 2.824-1.15 1.094 0 2.028.384 2.802 1.15.774.767 1.16 1.693 1.16 2.78 0 1.094-.388 2.027-1.166 2.8-.777.775-1.71 1.162-2.795 1.162-.43 0-.848-.06-1.25-.18-.208-.082-.256-.31-.144-.68.12-.38.282-.54.49-.48l.157.033c.104.022.225.045.363.067.137.022.25.033.34.033.774 0 1.43-.266 1.964-.798a2.64 2.64 0 0 0 .804-1.947 2.56 2.56 0 0 0-.804-1.91c-.528-.527-1.18-.79-1.953-.79-.796 0-1.458.297-1.986.892-.476.536-.714 1.13-.714 1.786v4.61c.82.498 1.72.747 2.7.747a5.39 5.39 0 0 0 2.066-.408 5.287 5.287 0 0 0 2.896-2.885 5.28 5.28 0 0 0 .407-2.042c0-1.473-.524-2.734-1.573-3.784-1.042-1.04-2.303-1.562-3.784-1.562-1.488 0-2.753.52-3.794 1.562-.395.395-.68.718-.86.97l-.022.024c-.06.082-.108.14-.145.173a.704.704 0 0 1-.24.107.677.677 0 0 1-.43-.034A1.104 1.104 0 0 1 11 15.31c-.115-.086-.173-.185-.173-.297v-7.59c0-.11.04-.21.117-.295A.396.396 0 0 1 11.25 7h9.79c.222 0 .334.205.334.614 0 .41-.112.614-.335.614h-9.052v5.39h.01a6.958 6.958 0 0 1 1.14-.937c.46-.312.862-.54 1.204-.68a6.563 6.563 0 0 1 2.58-.513c.9 0 1.747.17 2.543.513a6.615 6.615 0 0 1 3.494 3.482 6.67 6.67 0 0 1 .512 2.556zm-.346-6.484c.067.06.1.126.1.2 0 .075-.02.142-.06.2-.042.06-.103.14-.185.236-.193.193-.338.29-.434.29a.246.246 0 0 1-.18-.078c-.788-.677-1.558-1.172-2.31-1.485a7.6 7.6 0 0 0-3.08-.625c-.99 0-1.964.183-2.924.547-.2.074-.368-.064-.502-.414-.067-.186-.097-.327-.09-.424.023-.12.083-.193.18-.223.967-.425 2.08-.637 3.336-.637a9 9 0 0 1 3.527.714c1.02.432 1.894.997 2.623 1.697z"/><path d="M20.82 18.86l.086-.04-.086.04z"/></g></svg>