<svg width="32" height="32" xmlns="http://www.w3.org/2000/svg"><path d="M22.908 13.71c-1.26 0-1.955.99-2.103 2.066h4.223c-.116-1.024-.795-2.065-2.12-2.065zm-2.07 3.53c.215 1.13 1.093 1.924 2.318 1.924.664 0 1.623-.263 2.187-.882l1.076 1.325C25.442 20.7 23.983 21 22.99 21c-2.417 0-4.306-1.853-4.306-4.5 0-2.47 1.738-4.5 4.19-4.5C25.245 12 27 13.94 27 16.5v.74h-6.163zm-5.95 3.74V15.42c0-.952-.395-1.5-1.224-1.5-.745 0-1.242.565-1.574.972v6.085H9.937V15.42c0-.952-.38-1.5-1.208-1.5-.748 0-1.26.565-1.576.972v6.085H5v-8.87h2.154v1.125C7.52 12.775 8.347 12 9.64 12c1.142 0 1.92.512 2.27 1.553.478-.74 1.373-1.553 2.665-1.553 1.557 0 2.468.988 2.468 2.894v6.085H14.89z" fill-rule="evenodd"/></svg>