<svg xmlns="http://www.w3.org/2000/svg" width="32" height="32"><path d="M24.28 8.146c-.704-.705-1.56-1.078-2.472-1.078-1.494 0-2.674.96-3.244 1.53l-2.006 2.005c-1.236 1.236-1.03 3.393-.824 4.496l-1.05 1.052a9.776 9.776 0 0 0-1.632-.15c-1.256 0-2.207.314-2.826.936l-1.98 1.98c-2.73 2.73-1.49 4.787-.508 5.77.703.705 1.56 1.078 2.473 1.078 1.49 0 2.673-.957 3.245-1.53l2.006-2.007c1.235-1.235 1.032-3.392.825-4.495l1.053-1.055a9.708 9.708 0 0 0 1.63.152c1.255 0 2.206-.316 2.827-.938l1.98-1.98c.83-.83 1.335-1.624 1.542-2.43.216-.834.212-2.09-1.036-3.338zm-10.41 12.49l-2.005 2.01c-.547.544-1.166.87-1.654.87-.198 0-.505-.043-.88-.418-.414-.414-1.04-1.04.508-2.59l1.98-1.98c.097-.097.34-.2.737-.247l-.064.063a1.127 1.127 0 0 0 1.593 1.592l.076-.076c-.043.337-.133.62-.29.777zm9.27-9.714c-.105.4-.427.873-.956 1.402l-1.98 1.98c-.103.103-.362.21-.794.255.32-.44.3-1.052-.096-1.448-.398-.398-1.012-.416-1.453-.092.044-.365.14-.676.312-.848l1.984-1.982c.545-.545 1.162-.87 1.652-.87.2 0 .506.042.88.417.53.53.525.896.45 1.185z"/></svg>