<svg width="32" height="32" xmlns="http://www.w3.org/2000/svg"><g fill-rule="evenodd"><path d="M22.807 16.994c.653-5.77-6.75-4.79-7.728-4.68-.98-.11-8.383-.98-7.73 4.68 0 0-1.96.652-.653 2.504 1.197 1.96 1.415 1.852 1.96 1.195 0 0 1.088 3.375 3.374 5.227l-.217-.652c1.415 1.852 2.613 1.74 2.83 1.414.218-.217.327-1.632.436-2.502v-.437.218-.217.437c.108.762.216 2.285.434 2.502.11.11.544.22.87.11l.653-.327c.436-.218.87-.652 1.307-1.197 0 0 0 .108-.11.437 2.07-1.853 3.05-5.01 3.05-5.01.545.547.763.655 1.96-1.195 1.524-1.854-.437-2.506-.437-2.506zm-11.974 2.504c1.198-4.572 2.504 0 2.504 0h-2.504zm4.355 4.027c-2.07 0-3.266-1.523-3.266-1.523H18.453c.11.107-1.307 1.523-3.265 1.523zm1.958-4.027s1.196-4.572 2.504 0h-2.504z"/><path d="M7.676 14.164S6.37 5.02 14.098 5.13c7.837.108 7.51 3.482 8.056 5.115l-13.39 3.92H7.677zM20.086 12.422s2.83 5.116 2.285 7.73c0 0 3.483-2.177 3.702-3.92 0-1.742-1.85-5.225-5.986-3.81"/><path d="M5.935 14.49s.11 1.634 1.85 1.525c1.742-.11 7.62-2.504 11.104-2.94 3.59-.543 5.115-.435 5.224-1.414.11-.98-2.067-3.047-4.68-1.088-2.616 1.96-13.827 1.96-13.5 3.92"/></g></svg>