<svg xmlns="http://www.w3.org/2000/svg" width="32" height="32"><path d="M25.12 24.56c-.81-.05-.99-.13-1.01-.14a.88.88 0 0 1-.29-.31c-.07-.11-.27-.51-.8-1.92L16.66 5.51h-1.55l-.11.35c-.32 1.02-.94 2.69-1.84 4.97l-3.39 8.66c-.6 1.53-1.2 2.98-1.78 4.31-.22.53-.35.63-.35.64-.01 0-.17.09-.85.11l-.85.03v1.9l.54-.04c.88-.06 1.91-.1 3.08-.1.97 0 1.85.03 2.62.1l.54.05v-1.86l-1.62-.21c-.32-.04-.45-.06-.49-.09 0-.02-.01-.05-.01-.1 0-.1.06-.56.8-2.55l.72-1.91h6.43l1.24 3.53c.31.9.35 1.11.4 1.1-.01.01-.12.05-.56.08l-1.69.11v1.86l.52-.022c1.48-.06 2.69-.1 3.59-.1.96 0 1.98.03 3.03.1l.53.03v-1.88l-.49-.017zm-7.42-6.93h-4.77l2.39-6.41 2.38 6.41z"/></svg>