<svg xmlns="http://www.w3.org/2000/svg" width="32" height="32"><g><path d="M8.77 10.12s2.78 7.05 4.15 10.52c.02.04.03.08.05.14-.06.01-.11.01-.16.01h-2.68c-.13 0-.18-.04-.22-.16-.12-.398-.27-.8-.39-1.19-.03-.11-.08-.16-.21-.16-1.15.01-2.29.01-3.44 0-.11 0-.15.03-.19.14l-.42 1.26c-.02.08-.05.12-.15.12-.94-.01-1.88 0-2.82 0-.02 0-.04-.01-.08-.01.03-.06.04-.12.07-.18 1.38-3.43 4.2-10.47 4.2-10.47l2.29-.02zm-.03 6.93c-.37-1.19-.73-2.36-1.09-3.53h-.03c-.36 1.17-.73 2.35-1.09 3.53h2.21zM17.39 21.06c-2.47 0-4.34-1.85-4.34-4.3 0-2.42 1.9-4.31 4.35-4.31 2.43 0 4.33 1.89 4.33 4.31 0 2.45-1.88 4.3-4.34 4.3zm-1.95-4.3c.02.14.02.28.05.41.21 1.13 1.33 1.86 2.4 1.56.98-.27 1.61-1.32 1.41-2.35-.17-.88-.86-1.55-1.68-1.63-1.18-.11-2.16.79-2.18 2.01zM25.38 20.77h-2.35V10.1h2.35v10.67zM28.27 21.06a1.507 1.507 0 0 1 0-3.01c.83 0 1.5.68 1.5 1.51 0 .84-.67 1.5-1.5 1.5z"/></g></svg>