<svg xmlns="http://www.w3.org/2000/svg" width="32" height="32"><g><path d="M7.54 10.7c.92-.92.92-2.42 0-3.35-.92-.92-2.42-.92-3.34 0-.92.92-.92 2.42 0 3.35.92.92 2.42.92 3.34 0zM8.53 11.82H3.3c-.86 0-1.55.69-1.55 1.55v4.64c0 .85.69 1.55 1.55 1.55h.41c-.01.08-.02.17-.02.26v4.64c0 .852.69 1.55 1.55 1.55H6.6c.86 0 1.55-.688 1.55-1.55v-4.64c0-.09-.01-.17-.02-.26h.41c.85 0 1.55-.69 1.55-1.55v-4.64c-.01-.85-.7-1.55-1.56-1.55z"/></g><g><path d="M17.64 10.7c.92-.92.92-2.42 0-3.35-.92-.92-2.42-.92-3.34 0-.92.92-.92 2.42 0 3.35.92.92 2.42.92 3.34 0zM18.63 11.82H13.4c-.85 0-1.55.69-1.55 1.55v4.64c0 .85.69 1.55 1.55 1.55h.41c-.01.08-.02.17-.02.26v4.64c0 .852.69 1.55 1.55 1.55h1.37c.85 0 1.55-.688 1.55-1.55v-4.64c0-.09-.01-.17-.02-.26h.41c.85 0 1.55-.69 1.55-1.55v-4.64c-.02-.85-.72-1.55-1.57-1.55z"/></g><g><circle cx="26.04" cy="9.07" r="2.36"/><path d="M28.7 11.87h-5.24c-.85 0-1.55.69-1.55 1.55v4.64c0 .85.69 1.55 1.55 1.55h.41c-.02.09-.02.17-.02.26v4.64c0 .85.69 1.55 1.55 1.55h1.37c.85 0 1.55-.69 1.55-1.55v-4.64c0-.09-.01-.17-.02-.26h.41c.85 0 1.55-.69 1.55-1.55v-4.64a1.56 1.56 0 0 0-1.56-1.55z"/></g></svg>