<svg width="32" height="32" xmlns="http://www.w3.org/2000/svg"><path d="M20.053 14.875c-1.084 0-1.64.903-1.64 2.262 0 1.286.6 2.25 1.64 2.25 1.176 0 1.617-1.137 1.617-2.25 0-1.162-.555-2.262-1.617-2.262zM17.175 11.5h1.284v3.264h.022c.35-.618 1.085-1.002 1.74-1.002 1.843 0 2.737 1.534 2.737 3.4 0 1.718-.792 3.338-2.522 3.338-.792 0-1.64-.21-2.024-1.05h-.022v.878h-1.22v-8.812l-4.507 8.792H3L7.514 11.5h9.66zm10.536 4.575c-.1-.78-.62-1.2-1.332-1.2-.668 0-1.606.383-1.606 2.324 0 1.063.43 2.188 1.55 2.188.745 0 1.265-.545 1.39-1.46H29c-.237 1.657-1.176 2.572-2.68 2.572-1.83 0-2.837-1.42-2.837-3.3 0-1.93.96-3.437 2.883-3.437 1.357 0 2.51.74 2.634 2.312H27.71z" fill-rule="evenodd"/></svg>