<svg width="32" height="32" xmlns="http://www.w3.org/2000/svg"><path d="M17.572 15.49c.076.567-.163 1.022-.717 1.364-.554.342-1.08.37-1.583.08a1.31 1.31 0 0 1-.76-.782 1.565 1.565 0 0 1-.007-1.107c.133-.37.38-.63.74-.783a1.73 1.73 0 0 1 1.028-.162c.346.054.648.213.91.48.26.264.39.568.39.91zm1.576-.283c-.132-.963-.667-1.7-1.604-2.214-.937-.513-1.87-.572-2.797-.176a3.116 3.116 0 0 0-1.427 1.195 2.892 2.892 0 0 0-.49 1.748c.038.82.404 1.517 1.1 2.093.696.576 1.48.828 2.35.756.862-.073 1.58-.45 2.158-1.135.578-.684.815-1.44.71-2.268zm3.394-7.317c-.19-.243-.454-.444-.795-.6-.34-.16-.615-.258-.824-.298-.208-.04-.544-.097-1.008-.17-2.755-.422-5.433-.413-8.037.028-.407.063-.72.117-.937.162a3.27 3.27 0 0 0-.78.297c-.303.152-.54.346-.71.58.284.252.644.456 1.08.614.435.157.783.256 1.043.297.26.04.675.093 1.243.156 2.158.26 4.278.266 6.36.014.597-.072 1.02-.126 1.272-.162.25-.036.594-.133 1.03-.29.434-.158.79-.367 1.064-.628zm.81 13.972c-.076.234-.15.578-.22 1.033-.072.454-.138.832-.2 1.134a2.848 2.848 0 0 1-.404.944c-.208.328-.483.583-.824.763-.814.432-1.71.753-2.69.965-.98.21-1.936.31-2.87.297a20.347 20.347 0 0 1-2.86-.25c-.435-.073-.82-.154-1.157-.244-.336-.09-.698-.21-1.086-.364a4.085 4.085 0 0 1-1.036-.588 3.057 3.057 0 0 1-.738-.83c-.237-.864-.507-2.178-.81-3.942l.086-.216.255-.12c2.11 1.33 4.508 1.997 7.192 1.997 2.683 0 5.085-.666 7.205-1.998.2.054.313.157.34.31.03.153.006.356-.07.608-.076.252-.114.418-.114.5zM25.92 8.89c-.247 1.502-.772 4.45-1.577 8.84-.047.27-.175.523-.383.757a2.87 2.87 0 0 1-.618.54 9.13 9.13 0 0 1-.774.42c-2.385 1.133-5.272 1.53-8.66 1.187-2.35-.243-4.213-.87-5.596-1.877a1.618 1.618 0 0 1-.603-.83 3.82 3.82 0 0 1-.128-.46 11.29 11.29 0 0 1-.085-.533 6.588 6.588 0 0 0-.078-.473 533.1 533.1 0 0 1-.774-4.205A103.01 103.01 0 0 1 6 8.133c.028-.234.11-.453.248-.655.138-.203.287-.37.448-.506.16-.135.374-.27.64-.405.264-.135.48-.237.652-.304.17-.068.397-.15.68-.25 1.185-.414 2.666-.702 4.446-.864 3.587-.334 6.787-.11 9.598.674 1.468.414 2.485.963 3.053 1.647.152.18.23.41.234.69.004.28-.022.522-.08.73z" fill-rule="evenodd"/></svg>