<svg xmlns="http://www.w3.org/2000/svg" width="32" height="32"><path d="M28.907 32s1.156-7.656-1.594-7.844-14.564 2.53-14.564 2.53-1.712 3.69-.246 5.314h16.403zM20.313 10.68s.03-1.126.28-1.653.032-1.09-.28-1.59S18.25 5.25 17.25 6.5s-.635 1.69 0 2.156 2.782 1.426 3.063 2.025zM14 10s-.003-1.562-.423-2.125-2.2.375-2.45.875-.126 1.738.56 1.932S14.002 10 14.002 10z"/><path d="M14.938 9.156s-2.78.438-4.344 1.938c0 0-2.25-.22-2.562 1.25 0 0-2.28 1.75-.875 4.47 0 0-1.094 8.343 8 12.656 0 0 12.188 3.656 12.625-6.406C28.22 13 20.938 8.156 14.938 9.156zm3.508 2.25c.33 0 .6.373.6.834 0 .46-.27.833-.6.833-.332 0-.602-.373-.602-.833 0-.46.27-.834.602-.834zm-5.648.625c.232 0 .422.31.422.69s-.19.685-.422.685-.422-.307-.422-.686.19-.69.422-.69zm3.547 11.064c-.656.53-1.562.625-3.625.22s-4.71-4.995-3.553-4.87c.605.066 1.643.124 2.495.165-.884-.766-1.036-2.39-1.036-2.39.125-2.45 2.906-1.97 3.644-1.69s2.17 1.532 1.92 2.564c-.17.694-.86 1.3-1.848 1.635 3.142.237 7.784 1.114 7.784 1.114-3.25.156-5.125 2.718-5.78 3.25z"/><path d="M8.663 14.712c-.016-.01-1.6-.944-3.1-.944h-3.28v-.1h3.28c1.527 0 3.135.948 3.15.958l-.05.086zM8.14 15.396c-.018-.006-1.748-.623-2.854-.534l-.164.014c-1.182.1-3.16.268-4.59.25v-.1h.17c1.41 0 3.277-.155 4.412-.25l.164-.014c1.12-.1 2.824.515 2.896.54l-.034.094zM2.79 16.986l-.015-.098c.36-.05.86-.18 1.437-.328.52-.136 1.113-.29 1.748-.422 1.337-.28 2.02-.193 2.048-.188l-.014.098c-.005.002-.696-.088-2.015.188-.632.133-1.223.285-1.743.42-.58.15-1.082.28-1.448.33zM24.086 20.342c-2.27-.422-5.046-3.03-5.073-3.057l.068-.072c.028.027 2.783 2.613 5.023 3.03l-.017.1zM27.02 19.424c-1.26-.285-2.56-1.146-3.236-2.146-.65-.963-3.623-.584-3.65-.58l-.015-.1c.124-.017 3.06-.39 3.746.623.663.98 1.94 1.827 3.177 2.106l-.022.098zM27.936 16.826c-.814-.045-2.357-.49-3.598-.848-.62-.18-1.157-.334-1.473-.4-.914-.193-2.71.247-2.728.252l-.023-.098c.074-.02 1.825-.452 2.772-.252.317.066.855.222 1.48.402 1.234.355 2.77.8 3.575.844l-.004.1zM23.825 12.375s2.645-.344 3.02.47.094 2.843-.97 2.937-2.976-.095-2.05-3.407z"/><ellipse cx="18.614" cy="12.01" rx=".168" ry=".229"/><ellipse cx="12.915" cy="12.509" rx=".117" ry=".208"/><path d="M14.89 18.69l-.338-.024a5.454 5.454 0 0 1-1.86.333c-.734.008-1.22-.415-1.543-.932l-.023-.006s-.562 4.062 2.25 4c.312.406 1.16.812 2.22.53 0 0-.162-2.522.078-3.776l-.784-.125z"/></svg>