<svg xmlns="http://www.w3.org/2000/svg" width="32" height="32"><path d="M14.736 21.995c-1.91-.367-6.355-1.812-6.355-7.27 0-3.12 1.057-5.564 3.138-7.263 1.02-.83 1.353-1.205 1.193-1.654-.067-.19-.262-.396-.606-.396-.217 0-.568.064-1.66.534C7.48 7.223 3.948 9.98 3.948 15.87c0 8.953 8.125 10.938 10.613 11.332.09.015.176.02.258.02.59 0 1.28-.403 1.28-1.543v-2.167c0-.772-.52-1.353-1.362-1.518zM17.084 5.114a1.77 1.77 0 0 0-.255-.02c-.593 0-1.284.404-1.284 1.545v2.164c0 .773.52 1.354 1.362 1.52 1.912.366 6.355 1.81 6.355 7.27 0 3.892-1.707 6.097-3.137 7.263-1.02.83-1.354 1.206-1.193 1.655.068.19.264.396.607.396.217 0 .568-.065 1.658-.535 2.965-1.276 6.498-4.033 6.498-9.923 0-8.947-8.124-10.937-10.612-11.336z"/></svg>