<svg xmlns="http://www.w3.org/2000/svg" width="32" height="32"><path d="M21.868 17.164c-2.497.193-4.543.637-5.87 1.09-.482.164-1.17.102-.904-.52.06-.14.083-.315.128-.506.064-.275.033-.492-.056-.648.46-.64 1.04-1.055 1.56-1.13a.688.688 0 0 0 1.298.216.69.69 0 0 0-1.23-.622c-.488.03-1.01.295-1.473.743-.117.112-.267.055-.245-.1.088-.648-.007-1.233-.274-1.65a.69.69 0 1 0-.285.298c.254.473.258 1.21 0 1.977a.91.91 0 0 0-.487.314 7.21 7.21 0 0 0-.39.515c-.29.424-.79-.035-.926-.5-.392-1.345-1.28-3.27-2.627-5.427-2.45-3.93-5.708-5.476-5.498-3.226.208 2.248.322 3.8.157 5.112-.164 1.313.43 2.31 1.56 2.932 1.13.62.816 1.048.026 1.503-.79.454-1.68 1.077-2.07 1.75-1.16 2.005-.51 3.778 1.692 4.942 2.204 1.163 3.482-.186 4.2-1.02.198-.227.417-.49.632-.754.222-.273.477-.068.462.132-.053.732.208.898.735.47.175-.144.516-.21.4.26l-.215.91c-.243 1.076-.57 2.905 1.675 3.988 2.244 1.082 4.056.553 4.98-1.572.338-.777.277-1.994.15-2.942-.103-.79.085-1.175 1.257-.63 1.17.54 2.326.426 3.284-.486.96-.91 2.275-1.74 4.21-2.906 1.937-1.164-1.24-2.87-5.858-2.512z"/></svg>