<svg xmlns="http://www.w3.org/2000/svg" width="32" height="32"><path d="M17.41 15.16c-.59-5.79-3.21-9.2-4.21-10.31-.74-.82-1.32-.5-1.31.77 0 1.78-1 4.37-1.78 5.26-1.41 1.63-4.14 3.82-4.41 8.03-.26 4.21 2.83 5.26 2.83 5.26-.26.79-1.05 1.98-1.97 2.9s-1.05.72-.13 1.32c.92.59 1.25.72 1.78 0 .53-.73 1.84-3.49 1.84-3.49 5.85.33 7.96-3.95 7.36-9.74zm-4.71 0c-1.12 2.04-2.1 4.71-2.33 5.74-.27 1.2-.69 1.27-.86-.03-.19-1.44.14-3.76 1.81-6.1 1.03-1.44 1.55-3.06 1.55-4.05 0-.99.23-1.02.56-.1.33.92.39 2.5-.73 4.54zM18.19 21.91c-.28.65-.17 1.44.76.97.93-.46 4-2.31 5.56-5.15 1.57-2.85 2.23-6.12 2.41-7.208.17-1.09-.56-.68-.99-.23-.43.45-1.41 1.36-3.54 1.81-2.13.44-3.88-.56-3.56.82.33 1.368.86 5.558-.64 8.988z"/></svg>