<svg width="32" height="32" xmlns="http://www.w3.org/2000/svg"><path d="M11.582 24C7.394 24 4 20.418 4 16s3.394-8 7.582-8c2.51 0 4.738 1.29 6.118 3.274a7.19 7.19 0 0 0-2.547 3.53c-.41-1.706-1.877-2.97-3.624-2.97-2.065 0-3.74 1.767-3.74 3.945s1.675 3.944 3.74 3.944a3.57 3.57 0 0 0 1.778-.474c.356 1.148-.602 2.195-.602 2.195s1.757-1.098 2.315-3.057c.107-.37.17-.772.17-1.202 0-1.15.27-2.23.75-3.178a6.686 6.686 0 0 1 1.998-2.37 6.148 6.148 0 0 1 3.657-1.21c3.537 0 6.405 3.026 6.405 6.758 0 3.733-2.868 6.76-6.405 6.76-1.724 0-3.29-.72-4.44-1.89a8.54 8.54 0 0 0 2.13-3.766c.397.927 1.282 1.572 2.31 1.572 1.4 0 2.536-1.198 2.536-2.676 0-1.478-1.135-2.676-2.535-2.676-.24 0-.47.035-.69.1-.157-.835.2-1.513.722-2.105l-.11.075c-1.456.974-2.046 2.642-2.27 3.597-.038.095-.07.193-.097.294-.23 4.2-3.53 7.53-7.568 7.53z" fill-rule="evenodd"/></svg>