<svg xmlns="http://www.w3.org/2000/svg" width="32" height="32"><path d="M27.354 16.88c-.863-.648-1.922-1.01-2.753-1.016-.31-.004-.764.058-1.15-.496-.204-.29-.41-.656-.7-1.022a6.19 6.19 0 0 0 .82-1.75c.03-.11.05-.218.078-.328.002-.01.01-.02.012-.028.002-.01 0-.02.003-.028.58-2.327.185-4.522-.54-5.44-.728-.92-2.018-1.637-3.093-1.827-.77-.137-.647.216-.736 1.055s.445 1.086.735 1.06c1.113-.31 1.747-.287 2.26.365.4.507.615 1.216.65 2.077a2.5 2.5 0 0 0-.54-.48c-.705-.453-1.51-.447-2.212.02a2.49 2.49 0 0 0-1.123 1.983c-.02.667.223 1.665 1.503 2.642.306.233.575.48.816.73-.827.98-1.872 1.84-2.856 2.35-.732.377-1.217.09-1.36-.544-.264-1.163-.7-3.607-3.864-3.906-4.316-.406-5.418 3.176-5.044 5.728.315 2.148 2.576 4.98-.363 5.395-1.764.248-2.414-1.127-2.015-2.2.197-.532.393-.712.66-.927.595-.477-.958-1.098-2.378.29-1.163 1.136-1.686 4.493 2.444 4.22 2.222-.146 3.667-.422 6.408.668 4.217 1.677 6.276.66 7.506-1.144.925-1.36.552-4.387-1.478-5.584-.5-.295-.354-.848.032-1.08.98-.595 2.104-1.413 3.005-2.442.204.276.368.54.5.766.445.765.153 1.352.127 1.647-.052.572.162 1.184.813 1.693 1.32 1.035 2.312 2.576 2.048 3.766-.203.918-.792 1.455.462 1.123 1.256-.33 1.983-1.254 1.917-3.037-.066-1.785-.595-2.605.265-2.36.858.242.463-.948-.858-1.938zm-4.735-4.847c-.025.093-.043.183-.07.277-.12.428-.306.834-.534 1.22a8.285 8.285 0 0 0-.806-.704c-.73-.558-1.107-1.168-1.088-1.77a1.44 1.44 0 0 1 .653-1.137c.434-.29.812-.165 1.053-.01.49.318.943 1.115.79 2.123z"/></svg>