<svg xmlns="http://www.w3.org/2000/svg" width="32" height="32"><g><path d="M27.2 18.21l1.21-.99-.59-2.54-1.43-.07s-.6-1.26-1.27-2.15l.79-1.82-1.61-1.66-1.76.44s-1.29-1.03-2.32-1.55l-.26-1.73-2.5-.99-.85 1.47s-1.4-.26-2.61 0l-1.77-1.88-1.98.7.48 2.5s-.73.77-.99 1.65l-3.86.27-.33 2.8 3.6 1.41s.53 2.21 1.59 3.77L8.6 20.79l3.27 3.64 3.42-1.84s1.21.81 3.64 1.51L20 27.07h2.98l.66-3.42s.77-.37 1.76-.95l1.99.88 1.03-1.51-1.32-2.02c-.01 0 .12-1.11.1-1.84zm-4.39 2.22c-2.21 2.16-6.29 1.57-9.11-1.32-2.82-2.89-3.32-6.98-1.12-9.14 2.21-2.16 6.29-1.57 9.11 1.31 2.82 2.9 3.32 6.99 1.12 9.15z"/><path d="M14.67 10.73s-1.23 1.27-1.34 3.39c-.11 2.17 1.16 3.82 2.57 4.05.99.15 1.58-.23 1.7-1.01.16-1.06-1.04-1.74-2.32-1.09-.16.08-1.09-.08-1.3-1.71-.25-1.92.69-3.63.69-3.63zM21.42 18.99s1.05-1.28.98-3.27c-.07-2.03-1.38-3.48-2.72-3.57-.94-.07-1.46.34-1.51 1.08-.062 1 1.1 1.54 2.26.84.15-.09 1.02-.01 1.34 1.49.38 1.76-.35 3.43-.35 3.43zM9.48 5.78l.58 1.96s-.61.83-.8 1.16h-.67l-.74-2.51 1.63-.61zM4.96 10.73l-.31 2.37 3.88 1.62s.72 2.19 1.29 3.05l-2.37 3.16 4.23 4.61 3.59-1.97s1.66.74 2.91 1.08l1.15 3.02h2.98v1.08H18.4l-1.1-3.07s-2.08-.77-2.59-.95l-3.4 1.89-4.91-4.9 2.13-2.75s-.98-1.8-1.42-3.42L3.6 14.17l.16-3.46c-.01.02 1.2.02 1.2.02zM25.44 23.55l-1.34.77 2.3 1.25.73-1.21z"/></g></svg>