<svg width="32" height="32" xmlns="http://www.w3.org/2000/svg"><path d="M19.667 24.65c-.4-2.3-1.07-4.678-2.006-7.132h-.027l-.03.015c-.152.057-.357.136-.615.236-.258.1-.74.333-1.446.7-.707.368-1.36.76-1.963 1.175-.602.416-1.228.962-1.877 1.64-.65.678-1.14 1.385-1.475 2.12l-.215-.158c1.757 1.433 3.753 2.15 5.987 2.15 1.26 0 2.483-.25 3.667-.746zm-2.65-8.693c-.2-.468-.454-.998-.76-1.59-2.97.888-6.182 1.332-9.64 1.332-.008.066-.013.166-.013.3 0 1.184.21 2.313.63 3.387a9.405 9.405 0 0 0 1.776 2.886 12.008 12.008 0 0 1 1.77-2.384c.7-.74 1.38-1.336 2.04-1.785.66-.448 1.282-.835 1.87-1.16.587-.324 1.062-.554 1.425-.687l.53-.186.186-.05a1.13 1.13 0 0 0 .187-.065zm-1.533-3.036c-1.145-2.033-2.31-3.838-3.494-5.413a9.27 9.27 0 0 0-3.352 2.664 9.282 9.282 0 0 0-1.833 3.896c2.883 0 5.777-.382 8.68-1.145zm9.797 4.57c-2.004-.573-3.957-.712-5.857-.416a40.35 40.35 0 0 1 1.834 6.718 9.386 9.386 0 0 0 2.65-2.715 9.263 9.263 0 0 0 1.374-3.587zM13.75 6.876c-.008 0-.018.005-.027.015.01-.01.02-.014.028-.014zm8.452 2.077c-1.767-1.566-3.834-2.35-6.202-2.35-.726 0-1.466.092-2.22.273 1.25 1.624 2.425 3.447 3.523 5.472.66-.25 1.28-.537 1.862-.867.583-.328 1.044-.622 1.383-.88a9.2 9.2 0 0 0 .938-.816c.286-.287.465-.48.537-.58.07-.1.13-.184.18-.25zm3.194 6.947c-.03-2.216-.74-4.173-2.134-5.873l-.015.015c-.086.114-.176.23-.272.35-.095.12-.303.332-.623.638s-.66.594-1.017.866c-.358.273-.835.583-1.432.93-.597.35-1.225.658-1.883.925.238.507.448.96.63 1.362.02.057.05.14.093.25.043.11.08.19.107.237.344-.05.7-.082 1.067-.1a20.325 20.325 0 0 1 2.04-.008 23.584 23.584 0 0 1 2.415.23c.205.032.38.06.523.085.143.024.262.045.358.064l.143.03zM27 16c0 1.996-.492 3.836-1.475 5.52a10.95 10.95 0 0 1-4.004 4.005C19.837 26.508 17.997 27 16 27c-1.996 0-3.836-.492-5.52-1.475a10.95 10.95 0 0 1-4.005-4.004C5.492 19.837 5 17.997 5 16c0-1.996.492-3.836 1.475-5.52a10.95 10.95 0 0 1 4.004-4.005C12.163 5.492 14.003 5 16 5c1.996 0 3.836.492 5.52 1.475a10.95 10.95 0 0 1 4.005 4.004C26.508 12.163 27 14.003 27 16z" fill-rule="evenodd"/></svg>