<svg width="32" height="32" xmlns="http://www.w3.org/2000/svg"><g fill-rule="evenodd"><path d="M7.048 20.017c0 2.832 2.026 5.225 5.25 5.225 1.97 0 3.31-.934 3.766-1.284.17-.116.057-.32.057-.32l-.712-1.373s-.086-.204-.314-.058c-.4.292-1.427.934-2.625.934-1.456 0-2.797-.962-2.94-2.714h6.534s.228-.03.257-.263c.03-.204.03-.467.03-.642 0-2.655-1.513-4.757-4.338-4.757-2.91.03-4.964 2.19-4.964 5.254zm2.568-1.226c.228-1.283 1.084-2.07 2.34-2.07 1.084 0 1.91.73 1.94 2.07h-4.28zM17.376 20.017c0 3.095 1.684 5.225 4.337 5.225 2.254 0 3.082-1.692 3.082-1.692h.028s-.028.262-.028.642v.583c0 .263.285.234.285.234h1.77c.2 0 .2-.205.2-.205V11.67s0-.234-.258-.234h-1.826c-.257 0-.285.233-.285.233v3.823c0 .32.03.555.03.555h-.03s-.684-1.285-2.824-1.285c-2.654.03-4.48 2.073-4.48 5.254zm2.454 0c0-1.984 1.113-3.094 2.454-3.094 1.626 0 2.425 1.518 2.425 3.094 0 2.22-1.2 3.153-2.454 3.153-1.427 0-2.426-1.255-2.426-3.153zM11.927 11.465v1.167c0 .146-.114.263-.257.292h-.028c-1.94.088-3.68 1.08-4.85 2.598 0 .03-.03.03-.03.06a.256.256 0 0 1-.2.086.215.215 0 0 1-.142-.058h-.028l-.856-.584-.03-.058c-.056-.06-.113-.117-.113-.234 0-.058.03-.117.057-.146 1.455-2.014 3.68-3.298 6.192-3.415h.028c.143.03.257.146.257.292M11.927 8.02v1.14a.29.29 0 0 1-.285.29c-3.082.117-5.792 1.723-7.56 4.204a.258.258 0 0 1-.23.117c-.057 0-.114-.028-.142-.028l-.03-.03-.855-.583a.267.267 0 0 1-.114-.235c0-.058.03-.117.058-.146C4.765 9.77 7.99 7.844 11.642 7.757c.17 0 .285.116.285.262"/></g></svg>