<svg xmlns="http://www.w3.org/2000/svg" width="32" height="32"><path d="M22.14 24.17c-.48.31-1.02-.04-1.61-.09-1.45-.12-3.29 0-5.09 0-1.74 0-3.53-.06-5 0-.76.03-1.58.3-2.14-.09-.16-1.32 1.44-.64 2.05-1.25.11-.11.39-.87.45-1.34.17-1.35 0-3.58 0-5.8 0-2.1.14-4.28 0-5.71-.05-.54-.29-1.34-.45-1.52-.48-.56-1.87-.13-1.68-1.16.28-.46.95-.27 1.34-.27 3.24 0 7.85.2 10.89-.18.29-.04.76-.25 1.07.18.11.44-.15.82-.18 1.43-.04.8.43 2.54-.54 2.32-.48-.11-.27-1.06-.53-1.52-.49-.84-3.08-.98-4.73-.98-.94 0-2.34.02-2.94.62-.14 1.65-.15 3.89 0 5.53 1.12.2 3.22.32 4.55.18.34-.04.84-.1 1.07-.27.722-.51.2-1.42.892-1.96.89.01.57.96.54 1.78-.03.61-.03 1.35 0 1.87.05.82.4 1.69-.27 1.87-.972-.33-.5-1.35-1.34-1.87-1.26-.78-3.57-.05-5.35-.18-.31.9-.18 2.03-.18 3.21 0 1.04-.25 2.31.18 3.12.5.97 2.97.83 4.37.71 1.64-.13 3.36-.46 3.84-1.43.4-.8-.08-1.41.62-2.05 1.64.32.51 1.8.36 3.03-.092.68.188 1.33-.19 1.82z"/></svg>