<svg xmlns="http://www.w3.org/2000/svg" width="32" height="32"><path d="M13.02 18.39c.72-2.88 1.58-6.35 1.66-6.71.08-.34.07-.54-.03-.67-.07-.09-.27-.19-.63-.03-.29.12-.53.22-.72.29-.84.33-.88.37-1.06 1.11l-.03.14c-.03.11-.15.59-.33 1.28-.3 1.16-.76 2.94-1.21 4.69l-4.12.14c.93-1.43 5.31-8.16 5.81-8.85l.17-.23c.27-.36.36-.48.29-.62-.06-.13-.21-.13-.27-.13-.06 0-.14.01-.23.01l-.1.01c-.65.04-.81.22-1.13.58l-.05.05c-.62.69-7.01 10.64-7.28 11.06l-.17.26.31-.01c.03 0 3.38-.09 6.21-.15-.73 2.79-.87 3.32-.9 3.38-.06.17-.13.41-.02.57.04.06.12.13.27.13.12 0 .27-.05.47-.14.62-.3 1.05-.52 1.43-.81.34-.26.42-.56.56-1.09.03-.1.06-.21.09-.34.05-.17.2-.76.45-1.75.39 0 .74-.01 1.01-.01.88 0 1.05-.25 1.23-.81.14-.41.29-1.18.29-1.21l.04-.2-2.01.06zM27.23 10.43c-.6-.63-1.44-.95-2.48-.95-1.16 0-2.35.37-3.54 1.09-1.19.73-2.3 2.04-3.29 3.92-.82 1.56-1.24 3.09-1.24 4.54 0 1.62.47 2.94 1.4 3.9.66.7 1.52 1.05 2.56 1.05.94 0 1.9-.31 2.85-.91a9.768 9.768 0 0 0 3.04-3c1.24-1.93 1.87-3.9 1.87-5.84.01-1.7-.39-2.98-1.17-3.8zm-2.52-.13c.54 0 .96.14 1.23.43.41.41.61 1.02.61 1.8 0 1.09-.38 2.67-1.12 4.69-.92 2.5-1.86 4.2-2.8 5.05-.602.56-1.3.85-2.08.85-.54 0-.97-.17-1.3-.53-.33-.35-.5-1.07-.5-2.11 0-1.18.32-2.69.95-4.47.77-2.21 1.648-3.77 2.63-4.66.74-.7 1.54-1.05 2.38-1.05z"/></svg>