<svg width="32" height="32" xmlns="http://www.w3.org/2000/svg"><path d="M10.866 15.242a2.46 2.46 0 1 0 0-4.922 2.46 2.46 0 0 0 0 4.922zm7.16 0a2.46 2.46 0 1 0 0-4.922 2.46 2.46 0 0 0 0 4.922zm-13.553 1.9c.36 0 4.29 2.525 10.49 2.525s11.19-2.925 11.19-3.558c0-.634-.24-.802-.653-.802-.414 0-.776.223-1.56.223-.785 0-1.04-.584-1.04-1.354 0-.77 1.43-3.807 2.82-3.807s2.272 1.854 2.272 3.292c0 1.438-.336 3.062-1.59 4.524C25.144 19.65 21.28 23 14.99 23c-4.337 0-8.392-2.17-10.198-3.65C3.98 18.683 4 17.956 4 17.81c0-.47.113-.67.473-.67z" fill-rule="evenodd"/></svg>