<svg xmlns="http://www.w3.org/2000/svg" width="32" height="32"><path d="M23.67 11.47c-.95.32-1.46-.06-1.68-1.08-.29-1.31-1.17-2.07-2.53-2.11-1.49-.05-2.98-.01-4.52-.01v6.68c1.15 0 2.28.09 3.39-.05.42-.05.9-.57 1.14-.99.26-.45.27-1.05.4-1.64h1.4v7.84h-1.43c-.38-2.75-.38-2.75-3.15-2.71-.55.01-1.1 0-1.8 0v1.76c0 1.53-.04 3.06.01 4.59.05 1.37.41 1.7 1.76 1.81.27.02.55.03.88.05v1.72h-3.4c-1.47 0-2.94-.01-4.41-.02-1.52-.01-1.52-.01-1.31-1.73.37-.02.75-.02 1.14-.06 1.07-.09 1.36-.33 1.37-1.41.05-3.61.05-7.22.06-10.84 0-1.35.01-2.69-.04-4.04-.04-1.13-.43-1.48-1.58-1.54-.3-.02-.6 0-.96 0-.02-.34-.06-.6-.06-.87 0-.24.02-.48.05-.87h2.01c4.13.01 8.26.03 12.4.01.6 0 .9.13.88.8-.04 1.54-.02 3.09-.02 4.71z"/></svg>