<svg xmlns="http://www.w3.org/2000/svg" width="32" height="32"><g><path d="M13.33 14.113c.326-.48.45-1.322.69-1.865.546-1.234 1.254-2.356 2.232-3.3 1.578-1.52 4.458-1.64 6.39-.823.61.257 1.398.687 1.63 1.354.456 1.323-.68 2.04-1.856 1.986-1.383-.06-2.607-.84-3.98-.963-1.39-.124-2.74.524-3.704 1.498-1.065 1.08-.895 1.365-1.4 2.113z"/><path d="M12.44 17.217c-.18-.552-.765-1.167-1.047-1.69-.638-1.19-1.086-2.44-1.227-3.792-.226-2.177 1.452-4.523 3.284-5.544.58-.322 1.4-.678 2.07-.448 1.323.455 1.19 1.79.427 2.684-.9 1.055-2.27 1.54-3.21 2.547-.952 1.017-1.274 2.48-1.1 3.84.194 1.503.523 1.547.803 2.404z"/><path d="M15.017 19.467c-.564-.14-1.396.025-1.99-.016-1.346-.09-2.642-.376-3.862-.978-1.964-.966-3.056-3.635-2.946-5.73.034-.663.17-1.548.72-1.99 1.09-.878 2.15-.054 2.5 1.068.412 1.322.095 2.74.446 4.072.355 1.347 1.423 2.4 2.667 2.974 1.377.636 1.588.38 2.464.6z"/><path d="M18.445 18.252c-.41.41-.695 1.21-1.035 1.7-.77 1.106-1.68 2.07-2.823 2.808-1.84 1.19-4.69.756-6.43-.416-.55-.37-1.24-.943-1.337-1.643-.192-1.384 1.06-1.87 2.2-1.595 1.348.328 2.402 1.326 3.725 1.71 1.34.388 2.79.013 3.923-.76 1.248-.852 1.14-1.166 1.777-1.803z"/><path d="M19.355 15.393c.078.575.545 1.283.73 1.85.42 1.28.643 2.59.543 3.946-.158 2.18-2.223 4.196-4.206 4.878-.628.217-1.5.424-2.117.08-1.222-.68-.856-1.973.053-2.717 1.07-.878 2.503-1.116 3.605-1.942 1.117-.834 1.69-2.22 1.756-3.588.075-1.514-.24-1.613-.365-2.507z"/></g></svg>