<svg xmlns="http://www.w3.org/2000/svg" width="32" height="32"><path d="M26.235 14.848h-2.25a7.734 7.734 0 0 0-1.306-3.143l1.607-1.61a1.3 1.3 0 0 0-1.838-1.84L20.844 9.86a7.732 7.732 0 0 0-3.227-1.344v-2.39a1.3 1.3 0 0 0-2.6 0v2.39a7.738 7.738 0 0 0-3.182 1.312L10.19 8.18a1.3 1.3 0 1 0-1.84 1.84l1.64 1.64a7.736 7.736 0 0 0-1.336 3.19h-2.25a1.3 1.3 0 0 0 0 2.6H8.64a7.725 7.725 0 0 0 1.35 3.266L8.428 22.28a1.3 1.3 0 0 0 1.84 1.84l1.57-1.572a7.734 7.734 0 0 0 3.182 1.312v2.097a1.3 1.3 0 0 0 2.6 0V23.86c1.188-.2 2.285-.67 3.227-1.343l1.525 1.525a1.3 1.3 0 1 0 1.84-1.84l-1.533-1.532a7.726 7.726 0 0 0 1.317-3.22h2.237a1.3 1.3 0 0 0 0-2.602zm-9.83 7.297a6.005 6.005 0 1 1 .002-12.01 6.005 6.005 0 0 1 0 12.01z"/><circle cx="13.801" cy="14.117" r=".894"/><circle cx="18.927" cy="14.117" r=".894"/><path d="M16.32 19.94c-1.892 0-2.99-1.44-3.19-1.73a.54.54 0 1 1 .89-.618c.148.21.948 1.266 2.3 1.266 1.366 0 2.065-.856 2.22-1.186a.543.543 0 1 1 .98.457c-.314.673-1.34 1.81-3.2 1.81z"/></svg>