<svg width="32" height="32" xmlns="http://www.w3.org/2000/svg"><g fill-rule="evenodd"><path d="M9.63 6.67c-.284-.893-.75-.893-1.037-.002l-2.368 7.338h5.757L9.632 6.67z"/><path d="M5.036 17.69a.944.944 0 0 0 .315.984l10.607 7.857.034.045-.12-.43.113.405-9.758-12.544-1.19 3.685z" opacity=".5"/><path d="M25.753 14.006h-5.75l2.347-7.33c.285-.89.75-.89 1.038 0l2.365 7.33z"/><path d="M26.63 18.674l-10.64 7.882 9.763-12.55 1.192 3.693a.786.786 0 0 1 .036.236c0 .28-.133.577-.35.738z" opacity=".4"/><path d="M11.965 14.006l4.026 12.57L6.28 14.09l.012-.084h5.673z" opacity=".5"/><path d="M11.965 14.006l4.026 12.57-9.776-12.57h5.75z" opacity=".7"/><path d="M20.018 14.006h-8.053l4.027 12.57 4.026-12.57z"/><path d="M15.975 26.575l9.778-12.57h-5.75l-4.028 12.57z" opacity=".7"/></g></svg>