<svg width="32" height="32" xmlns="http://www.w3.org/2000/svg"><path d="M8.13 22.03l3.07.376c.128.784.484 1.354 1.07 1.712.782.483 1.85.725 3.207.725 1.46 0 2.59-.242 3.384-.725a3.606 3.606 0 0 0 1.614-2.03c.163-.533.24-1.65.228-3.352-1.38 1.345-3.098 2.017-5.155 2.017-2.56 0-4.54-.764-5.943-2.292C8.2 16.934 7.5 15.1 7.5 12.964c0-1.47.32-2.826.964-4.068a6.788 6.788 0 0 1 2.797-2.88C12.483 5.338 13.918 5 15.566 5c2.197 0 4.01.735 5.435 2.205V5.348h2.91v13.316c0 2.398-.295 4.098-.885 5.1-.59 1-1.526 1.79-2.805 2.37-1.28.58-2.855.87-4.725.87-2.22 0-4.015-.413-5.383-1.24-1.367-.827-2.028-2.072-1.98-3.735zm2.613-9.255c0 2.02.485 3.496 1.456 4.424.97.927 2.184 1.39 3.645 1.39 1.45 0 2.665-.46 3.647-1.384.982-.923 1.473-2.37 1.473-4.344 0-1.886-.506-3.307-1.517-4.265-1.01-.957-2.23-1.436-3.655-1.436-1.403 0-2.595.473-3.577 1.416-.982.942-1.473 2.342-1.473 4.2z" fill-rule="evenodd"/></svg>