<svg xmlns="http://www.w3.org/2000/svg" width="32" height="32"><g><path d="M18.45 15.71h-2.17l-1.48-2.74a.54.54 0 0 0-.72-.22c-.26.14-.35.46-.21.72l1.78 3.3h2.8c.29 0 .53-.24.53-.53s-.23-.53-.53-.53z"/><path d="M22.44 16.19c-.11-3.46-2.95-6.25-6.44-6.25s-6.33 2.79-6.44 6.25c0 .02-.01.03-.01.05 0 .01.01.02.01.03 0 .04-.01.08-.01.12 0 3.56 2.89 6.45 6.45 6.45s6.45-2.89 6.45-6.45c0-.04-.01-.08-.01-.12 0-.01.01-.02.01-.03 0-.02-.01-.03-.01-.05zm-5.91 5.56v-1.03c0-.29-.24-.53-.53-.53s-.53.24-.53.53v1.03c-2.6-.25-4.65-2.36-4.84-4.98h1.04c.29 0 .53-.24.53-.53 0-.3-.24-.53-.53-.53h-1.01a5.38 5.38 0 0 1 4.81-4.68v1.03c0 .3.24.53.53.53s.53-.24.53-.53v-1.03c2.5.24 4.5 2.2 4.81 4.68h-1.01c-.29 0-.53.24-.53.53s.24.53.53.53h1.04c-.19 2.62-2.24 4.73-4.84 4.98z"/><path d="M27.44 17.57v-2.65h-1.63a9.86 9.86 0 0 0-1.92-4.65l1-1-1.88-1.88-1 1a9.866 9.866 0 0 0-4.7-1.96V4.9h-2.65v1.52c-1.73.24-3.32.93-4.66 1.95L8.95 7.32 7.08 9.2l1.04 1.05a9.777 9.777 0 0 0-1.94 4.67H4.56v2.65h1.63c.24 1.75.93 3.36 1.96 4.7l-1.09 1.09 1.88 1.88 1.1-1.09a9.788 9.788 0 0 0 4.65 1.92v1.56h2.65v-1.56c1.74-.24 3.34-.92 4.67-1.94l1.05 1.05 1.88-1.88-1.05-1.05a9.875 9.875 0 0 0 1.94-4.67c-.02-.01 1.61-.01 1.61-.01zm-3.65-1.33c0 4.3-3.49 7.79-7.79 7.79s-7.79-3.49-7.79-7.79S11.7 8.45 16 8.45s7.79 3.49 7.79 7.79z"/></g></svg>