<svg xmlns="http://www.w3.org/2000/svg" width="32" height="32"><path d="M15.12 16.927l.03-.044.026.04c-.016-.09-.018-.183-.027-.273-.01.092-.014.186-.03.277zM23.932 10.097l-.002-.038.002.037zM23.96 10.625c-.01-.268-.022-.453-.028-.528.004.07.015.257.027.528z"/><path d="M23.975 10.076l-.043.02c.006.076.018.262.027.53-.013-.272-.024-.46-.028-.528-.256.127-1.672.865-2.914 2.14a4.268 4.268 0 0 1 2.604 3.503c.018.15.047.3.047.455 0 .104-.024.202-.032.305l.002.09h.012c.06-.145 1.24-2.94.323-6.514zM15.15 15.74c-.23-2.148-2.028-3.828-4.237-3.828a4.282 4.282 0 0 0 0 8.564 4.25 4.25 0 0 0 2.44-.77l1.768-2.78c.017-.09.02-.185.03-.277-.018-.152-.047-.3-.047-.456s.03-.303.046-.455zm-4.33 3.256a2.785 2.785 0 0 1 0-5.57c.152 0 .298.02.442.043a.817.817 0 0 0-.454.726.825.825 0 0 0 1.65 0 .768.768 0 0 0-.056-.273 2.783 2.783 0 0 1-1.58 5.073z"/><path d="M15.15 16.65c.016-.152.045-.3.045-.456s-.03-.304-.046-.455c-.018.15-.047.3-.047.454s.03.304.046.455z"/><path d="M23.664 16.586l-.014.002-.012.002-.002-.09c.008-.104.03-.2.03-.306 0-.155-.028-.304-.046-.454a4.268 4.268 0 0 0-2.604-3.502 11.652 11.652 0 0 1 2.914-2.14l-.002-.04C18.362 8.656 16.3 12.93 16.03 13.56a4.234 4.234 0 0 0-.883 2.18c.017.15.046.3.046.454s-.03.304-.046.455c.01.09.012.183.027.27l.79 1.136 1.088 1.56-.07.124-1.835 3.192c.306 4.005 3.438 9.064 3.438 9.064h5.357l-.278-15.41zm-2.137.312a2.783 2.783 0 0 1-2.69 2.098 2.77 2.77 0 0 1-2.38-1.357 2.745 2.745 0 0 1 .45-3.43c-.01.048-.03.093-.03.145 0 .456.37.825.826.825a.817.817 0 0 0 .8-.703c.007-.04.024-.078.024-.122a.815.815 0 0 0-.572-.773 2.75 2.75 0 0 1 .883-.156c.383 0 .748.077 1.08.217.75.315 1.32.956 1.566 1.74l.03.097c.065.234.11.477.11.732 0 .237-.04.466-.097.686z"/><g><path d="M10.913 11.912c2.21 0 4.006 1.68 4.236 3.827.087-.82.398-1.564.882-2.18.27-.63 2.332-4.904 7.898-3.502a6.39 6.39 0 0 0-2.498-.312 2.095 2.095 0 0 0-.193-.235c-1.308-1.306-2.41-2.545-6.88-2.545-4.474 0-6.33 2.752-6.33 2.752H5.69c.206 3.165.138 3.233.618 8.53.01.114.037.23.06.345l-.046-.006s-.333 12.506 4.792 13.41h7.475s-3.133-5.06-3.44-9.063l-1.796-3.226a4.256 4.256 0 0 1-2.44.77 4.282 4.282 0 0 1 0-8.565z"/><path d="M15.967 18.057l-.79-1.135-.028-.04 1.905 2.735zM15.12 16.927l-1.767 2.78 1.796-2.824zM16.985 19.74l.07-.123-1.905 3.316z"/></g></svg>