<svg xmlns="http://www.w3.org/2000/svg" width="32" height="32"><path d="M11.76 3.834c-.58-.317-.775.21-1.162.265-.387.05-.86.255-.933.597-.072.34.036.74-.176.863-.213.122-1.18.79-1.674.845-.492.053-.435.475-.208.635.227.158.156.192.28.544.122.353.668.774 2.43.405 0 0-.582.598-.775 1.038-.194.44-.688.976.892.73.97-.148 1.044.025.675.59-.37.563-1.3 2.192-1.41 2.307-.106.113-.65.247-.65.422 0 .177 0 .213-.21.37-.213.16-.37.6-.37.688 0 .088-.318.58-.634.915-.317.334-.898 1.373-.74 2.252.16.88.968 1.076 1.796.44 0 0-.33 2.177 1.42 4.26 1.12 1.333 1.71 1.335 1.608 2.606-.023.285-.528.793-.616 1.34 0 0-.546.033-.95.37 0 0-.987.015-1.093 1.003 0 0 .248.175.706.16 0 0 .27.56 1.04.366 0 0 .234.438.914.16.914-.373.97-.318 1.778-.494.62-.135.37-.463.423-.86.03-.23.14-.616.423-1.146.282-.527.056-.846.62-.846s2.014-.12 2.355-.105c.236.01.33.025.3.307-.03.266-.247 1.016-.23 1.33.018.318-.004.436-.158.44-.283.007-.878.042-1.02.548 0 0-.455.22-.565.826-.035.193.74.23.74.23s.316.28.898.317c.58.033.633-.23.633-.23s.176.13.617.232c.44.102.65-.18.756-.408s.104-.23.104-.23.863-.07.934-.423c.07-.352-.457-.72-.23-1.23.23-.512.388-1.127.335-2.06s-.37-1.5-.176-1.85 2.412-3.026 2.887-4.737c.477-1.706 1.287-4.33 2.184-4.77.898-.44 1.777-.687 2.254-.687s.37-.37 0-.492c-.37-.124-.79-.124-.95-.37-.16-.248-.335-.282-.687-.088-.352.193-.44.035-.6-.124a.325.325 0 0 0-.545.124c-.105.264-.193.386-.635.21-.44-.175-.932.142-.896.44.034.3 0 .528-.478.564-.475.034-1.11.175-1.055.897.05.723-.055.863-.635.863-.582 0-.74.177-.635.72.107.55.107.69-.404.602-.51-.09-.775-.07-.863.546-.088.615-.176.793-.686.458-.512-.335-.547-.44-.828-.124-.28.318-.545.318-.898-.157-.352-.477-.28-.598-1.02-.39-.74.214-.846.282-.863-.332-.018-.616.123-.793-.423-.847-.545-.053-.95-.245-.722-.827.23-.58-.053-.598-.458-.756-.405-.158-.282-.562.105-.793.387-.228.352-.473.088-.86s0-.652.458-.862c.458-.21.616-.317.317-.812-.3-.49-.14-.49.404-.72.546-.23.388-.477.142-.882-.245-.402-.016-.648.37-.966.39-.317.265-.773-.21-1.072-.475-.3-.334-.213-.37-.774-.035-.564-.053-.76-.65-.6-.6.158-.53-.035-.776-.404-.246-.37-.57-.328-.775-.16-.204.17-.264-.017-.845-.334z"/></svg>