<svg width="32" height="32" xmlns="http://www.w3.org/2000/svg"><g fill-rule="evenodd"><path d="M6.844 8.56h18.313v1.975H6.844zM6.844 24.79h18.313v1.426H6.844zM6.186 26.654h19.63v1.097H6.185zM6.953 7.903h18.314l.438-.55-9.65-2.3-9.65 2.3.548.55zM7.392 11.083s-.548 5.812 0 12.94c0 0 .877.33 1.755 0 0 0 .658-6.58.11-12.94-.11 0-.878-.33-1.865 0M12.436 11.083s-.548 5.812 0 12.94c0 0 .877.33 1.755 0 0 0 .66-6.58.11-12.94 0 0-.877-.33-1.864 0M18.14 11.083s-.55 5.812 0 12.94c0 0 .876.33 1.754 0 0 0 .658-6.58.108-12.94 0 0-.767-.33-1.863 0M23.183 11.083s-.548 5.812 0 12.94c0 0 .877.33 1.755 0 0 0 .658-6.58.11-12.94-.11 0-.988-.33-1.865 0"/></g></svg>