<svg xmlns="http://www.w3.org/2000/svg" width="32" height="32"><path d="M24.036 18.636a8.06 8.06 0 0 0 .13-5.327 30.09 30.09 0 0 0 1.586-1.826c2.02-2.542 2.59-4.302 1.742-5.378-.255-.325-.762-.712-1.724-.712-1.538 0-4.003.996-6.86 2.708a8.082 8.082 0 0 0-2.41-.365c-1.72 0-3.314.542-4.623 1.462C9.54 7.914 7.545 7.185 6.23 7.185c-.963 0-1.47.388-1.725.712-.847 1.077-.276 2.836 1.742 5.378a32.344 32.344 0 0 0 2.2 2.467v.047c0 .18.007.356.02.532-.84.855-1.59 1.69-2.22 2.485-2.02 2.542-2.59 4.302-1.742 5.378.255.325.762.712 1.724.712 1.392 0 3.544-.817 6.06-2.242a8.017 8.017 0 0 0 6.045.975c3.102 1.925 5.796 3.06 7.436 3.06.963 0 1.47-.388 1.725-.712.847-1.077.276-2.837-1.742-5.38-.503-.63-1.08-1.288-1.717-1.962zm-13.225 2.85c-2.068 1.11-3.69 1.68-4.58 1.68-.23 0-.33-.038-.362-.054-.068-.226.14-1.28 1.92-3.462.333-.407.7-.827 1.093-1.256.205.597.477 1.16.807 1.684.59-.31 1.292-.737 2.085-1.263.484.41.983.818 1.495 1.225a39.14 39.14 0 0 1-2.456 1.447zm3.706-2.662a61.78 61.78 0 0 1-1.27-1.03 51.575 51.575 0 0 1-2.002-1.754c-.436-.4-.854-.802-1.25-1.198a35.984 35.984 0 0 1-1.23-1.284c-.35-.383-.676-.76-.975-1.127-1.78-2.18-1.99-3.234-1.923-3.46.03-.017.134-.056.362-.056l.098.003c.86.037 2.32.547 4.165 1.51-.378.424-.712.89-.995 1.387a32.902 32.902 0 0 0 3.058 3.057c.57.503 1.205 1.032 1.92 1.588l.282.222a92.627 92.627 0 0 0 2.4-1.88c.488-.397.94-.774 1.362-1.134 1.675-1.43 2.86-2.588 3.735-3.508a7.97 7.97 0 0 0-1.425-1.16c2.14-1.185 3.84-1.817 4.81-1.87a1.84 1.84 0 0 1 .13-.006c.23 0 .332.04.363.055.067.227-.143 1.28-1.922 3.462-.256.312-.533.635-.827.963a41.827 41.827 0 0 1-3.345 3.295c-.43.383-.874.764-1.33 1.143a54.372 54.372 0 0 1-3.928 2.99c-.088-.068-.176-.136-.264-.206zm11.617 6.08c-.03.017-.134.055-.362.055-1.002 0-2.926-.72-5.374-2.12a46.22 46.22 0 0 1-4.16-2.715 55.11 55.11 0 0 0 1.538-1.132 64.44 64.44 0 0 0 4.07 2.82 8.08 8.08 0 0 0 1.35-1.544c.366.398.706.79 1.018 1.172 1.778 2.18 1.988 3.236 1.92 3.462z"/></svg>