<svg xmlns="http://www.w3.org/2000/svg" width="32" height="32"><path fill-rule="evenodd" clip-rule="evenodd" d="M22.74 6.646C22.61 5 21.383 5 19.96 5c-1.802.002-4.138 0-5.94 0-1.045 0-1.553.674-1.553 1.488 0 3.104.13 5.738.13 9.334 0 2.745-1.228 2.915-3.036 2.97-2.118.065-2.292.743-1.614 2.683.656 1.875 2.488 6.62 2.488 6.62s12.582.745 12.564-7.46c-.008-3.88-.086-11.788-.258-13.99zm-5.62 19.06c-2.378.714-5.49.903-5.49.903s-1.214-2.856-2.23-6.267c3.876-.39 4.94-.873 4.75-4.91-.146-2.98-.196-5.714-.196-8.948 2.496-.18 7.19-.164 7.19-.164s.454 7.466.466 11.794c.01 3.884-.163 6.288-4.49 7.59z"/></svg>