<svg width="32" height="32" xmlns="http://www.w3.org/2000/svg"><path d="M24.336 15.832a4.29 4.29 0 0 1 1.928 1.563c.49.713.736 1.506.736 2.38 0 1.174-.423 2.178-1.268 3.013-.845.834-1.865 1.25-3.06 1.25a2 2 0 0 1-.125-.004 1.984 1.984 0 0 0-.112-.006H9.36c-1.216-.07-2.247-.52-3.092-1.348C5.423 21.853 5 20.85 5 19.667c0-.788.197-1.515.59-2.18a4.392 4.392 0 0 1 1.58-1.58 2.978 2.978 0 0 1-.13-.88c0-.824.295-1.526.882-2.106.587-.58 1.3-.87 2.138-.87.68 0 1.296.208 1.847.624a6.467 6.467 0 0 1 2.39-2.664A6.393 6.393 0 0 1 17.805 9a6.48 6.48 0 0 1 3.287.865 6.45 6.45 0 0 1 2.38 2.347 6.244 6.244 0 0 1 .87 3.427 5.08 5.08 0 0 0-.006.192zm-14.31 2.857c0 .873.302 1.564.904 2.073.6.508 1.346.762 2.234.762.98 0 1.84-.354 2.578-1.063a22.93 22.93 0 0 0-.51-.607c-.226-.26-.38-.442-.467-.543-.48.466-.996.7-1.547.7-.394 0-.73-.12-1.005-.36-.275-.24-.413-.554-.413-.94 0-.38.138-.692.413-.936.276-.243.604-.365.983-.365.315 0 .618.076.908.227.29.15.55.347.784.59.233.244.466.513.698.806.233.294.48.587.742.88.26.295.537.563.827.807a3.5 3.5 0 0 0 1.042.59c.404.15.84.226 1.305.226.866 0 1.6-.256 2.197-.768s.896-1.194.896-2.046c0-.867-.3-1.554-.903-2.063-.6-.51-1.342-.764-2.223-.764-1.024 0-1.887.348-2.59 1.042l.318.366c.11.13.234.272.37.43.136.157.24.28.312.365.473-.46.98-.69 1.525-.69.373 0 .702.12.99.356.285.236.428.537.428.902 0 .408-.132.736-.397.983-.265.248-.602.37-1.01.37-.308 0-.603-.074-.886-.224a3.043 3.043 0 0 1-.774-.59 12.592 12.592 0 0 1-.703-.807 23.244 23.244 0 0 0-.747-.88 7.667 7.667 0 0 0-.832-.807 3.61 3.61 0 0 0-1.037-.59 3.567 3.567 0 0 0-1.273-.227c-.874 0-1.615.253-2.224.758-.608.505-.913 1.183-.913 2.035z" fill-rule="evenodd"/></svg>