<svg xmlns="http://www.w3.org/2000/svg" width="32" height="32"><g><path d="M12.41 12.62c0-.39-.31-.7-.7-.7h-7.7c-.39 0-.7.31-.7.7 0 .39.31.7.7.7h7.7c.39 0 .7-.31.7-.7zM12.59 16.14c0-.39-.31-.7-.7-.7H6.54c-.39 0-.7.31-.7.7s.32.7.7.7h5.34c.39 0 .71-.32.71-.7zM12.5 18.99H8.9c-.39 0-.7.31-.7.7 0 .39.32.7.7.7h3.61c.39 0 .7-.31.7-.7 0-.39-.32-.7-.71-.7zM28.55 12.2s-2.56-3.76-2.78-4.06c-.23-.3-.42-.45-.78-.45h-7.74c-.39 0-.7.31-.7.7v14.73c0 .39.31.7.7.7h8.66a.7.7 0 0 0 0-1.4h-7.96V9.1h6.42v3.52c0 .39.32.7.7.7h2.9c.26 0 .51-.15.63-.39.13-.23.11-.52-.05-.73z"/></g></svg>