<svg xmlns="http://www.w3.org/2000/svg" width="32" height="32"><path d="M15.98 15.28s-3-4.77-3.95-6.31c-.76-1.24-.77-2.65.17-3.35 1.12-.83 2.49-.08 2.88.19.47.33 1.01.4 1.49.02 1.03-.82 2.66-.78 3.3-.08.69.75.37 2.07-.38 3.48-1.47 2.76-3.51 6.05-3.51 6.05zM16.85 15.84s3.68-4.27 4.88-5.62c.96-1.09 2.31-1.51 3.25-.82 1.12.82.81 2.35.66 2.81-.18.55-.08 1.08.41 1.43 1.08.75 1.52 2.31 1.04 3.14-.52.88-1.87.96-3.44.65-3.06-.61-6.8-1.59-6.8-1.59zM16.42 16.68s5.17 2.24 6.82 2.98c1.33.59 2.13 1.76 1.75 2.86-.45 1.32-2 1.48-2.49 1.47-.58-.01-1.06.24-1.24.82-.39 1.25-1.76 2.14-2.68 1.93-.99-.23-1.47-1.5-1.65-3.09-.34-3.11-.51-6.97-.51-6.97zM15.55 16.68s-5.17 2.24-6.82 2.98c-1.33.59-2.13 1.76-1.75 2.86.45 1.32 2.01 1.48 2.49 1.47.58-.01 1.06.24 1.24.82.39 1.25 1.76 2.14 2.69 1.93.99-.23 1.47-1.5 1.64-3.09.34-3.11.51-6.97.51-6.97zM15.15 15.84s-3.68-4.27-4.88-5.62c-.96-1.09-2.31-1.51-3.25-.82-1.12.82-.81 2.35-.66 2.81.18.55.08 1.08-.41 1.43-1.08.75-1.52 2.31-1.04 3.14.52.88 1.88.96 3.44.65 3.06-.61 6.8-1.59 6.8-1.59z"/></svg>