<svg xmlns="http://www.w3.org/2000/svg" width="32" height="32"><path d="M29.395 11.422H26.83c-.38 0-.742.074-1.068.204-.768.242-1.383.794-1.623 1.513l-3.257 9.768-3.258-9.77c-.24-.718-.854-1.27-1.623-1.512a2.893 2.893 0 0 0-1.07-.204H12.37c-1.438 0-2.603 1.027-2.603 2.294V32H14.973V21.453l3.33 9.988c.067.202.163.39.282.56h4.596c.118-.17.215-.355.282-.56l3.33-9.987V32H32V13.716c0-1.267-1.167-2.294-2.605-2.294zM0 0v3.312s1.39-2 4.023-3.312H0zM13.694 0s3.134 1.072 7.564 5.614c0 0 2.773-5.833 8.836-5.614h-16.4z"/></svg>