<svg width="32" height="32" xmlns="http://www.w3.org/2000/svg"><path d="M17.984 13.384a.91.91 0 0 0 .914-.907.91.91 0 0 0-.914-.907.91.91 0 0 0-.914.907c0 .5.41.907.914.907zm-4.71-1.675h1.335v1.395h-1.337V11.71zm1.968 0h1.336v1.395h-1.336V11.71zm-1.97 2.162h1.337v1.395h-1.337v-1.395zm1.97 0h1.336v1.395h-1.336v-1.395zm2.04 0h1.335v1.395H17.28v-1.395zm-2.184 12.91C11.108 22.925 7.4 17.163 7.4 13.313c0-4.648 3.795-8.414 8.475-8.414s8.475 3.766 8.475 8.414c0 3.74-3.343 9.09-7.454 13.363l-.047.048-.05.05c-.382.384-1.327.384-1.702.006zm.898-.902c.02-.018.02-.018.035-.035 3.91-4.063 7.12-9.2 7.12-12.53 0-3.984-3.256-7.215-7.275-7.215-4.02 0-7.275 3.23-7.275 7.214 0 3.43 3.558 8.96 7.34 12.613.034-.024.034-.024.056-.047zm-3.81-14.56v4.615c0 .223.182.407.4.407h6.86c.217 0 .4-.183.4-.407V11.32a.406.406 0 0 0-.4-.406h-6.86c-.218 0-.4.183-.4.407zm-1.2 0c0-.885.718-1.606 1.6-1.606h6.86c.883 0 1.6.724 1.6 1.607v4.615c0 .885-.72 1.607-1.6 1.607h-6.86c-.884 0-1.6-.724-1.6-1.607V11.32z" fill-rule="evenodd"/></svg>