<svg xmlns="http://www.w3.org/2000/svg" width="32" height="32"><path fill-rule="evenodd" clip-rule="evenodd" d="M11.465 27.686c-.85-1.847-1.15-3.742-1.455-5.673-1.928.365-3.81.805-5.872.717.82-1.886 2.01-3.435 3.197-5.036-1.202-.852-2.483-1.583-3.385-2.85.322-.167.617-.35.935-.48A151.33 151.33 0 0 1 8.73 12.84c.315-.12.437-.253.433-.6-.02-2.106.356-3.775.356-3.775s1.67.146 3.947.794c.422.12.66.084.98-.25 1.513-1.65 3.55-3.3 3.55-3.3s1.034 1.426 1.614 3.26c.066.15.11.31.173.497 2.017-.515 4.006-1.044 6.25-1.152-.438.91-.794 1.74-1.226 2.53-.43.78-.94 1.52-1.44 2.326 1.82.897 3.677 1.706 5.32 3.13-.713.343-1.303.683-1.933.92-1.367.516-2.75.997-4.14 1.452-.403.132-.513.26-.457.718.193 1.598.31 3.206.446 4.81.018.195.02.894.02.894s-1.14-.176-2.146-.54c-1.44-.522-2.075-.868-3.303-1.42-.882-.394-.842-.407-1.48.282-1.196 1.294-2.42 2.56-3.637 3.834-.134.138-.316.235-.592.436zm8.563-15.433c-.165-.82-.333-1.64-.51-2.506-.095.037-.246.09-.395.15-.433.172-.868.334-1.29.523-1.01.453-1.96.372-2.874-.257-.27-.185-.572-.323-.826-.466L12.34 12.06l-2.975.757c-.003.032-.013.067-.005.1.026.112.048.228.092.335.562 1.34.272 2.443-.867 3.354-.34.27-.613.63-.962.99.6.24 1.1.454 1.61.647.717.27 1.037.77 1 1.538-.03.624-.007 1.25-.007 1.91.678-.234 1.315-.422 1.925-.677 1.01-.424 1.905-.27 2.75.398.425.34.878.644 1.34.98.425-.697.834-1.356 1.232-2.02.41-.69 1.005-1.086 1.794-1.215.852-.138 1.7-.29 2.603-.447-.123-.276-.244-.526-.347-.783-.85-2.117-.81-2.1.66-3.737.27-.3.558-.584.82-.856-1.022-.368-1.997-.726-2.975-1.08z"/><path fill-rule="evenodd" clip-rule="evenodd" d="M16.517 11.145s-1.125.913-1.663 1.72c0 0-1.498-.537-2.18-.537 0 0-.08.62-.08 1.076s.08.937.08.937-1.498.47-2.316.893c0 0 1.522 1.377 1.51 1.355s-.925 1.407-1.322 2.11c0 0 1.52-.024 2.68-.328 0 0 .212 1.57.71 2.06 0 0 1.435-1.17 1.81-1.92 0 0 1.357.75 2.458.773 0 0 .07-1.45 0-2.342 0 0 1.873-.5 2.6-1.065 0 0-.994-.82-1.977-1.253 0 0 .938-1.335 1.13-2.062 0 0-1.963.023-2.596.423 0 0-.187-1.03-.843-1.838z"/></svg>