<svg xmlns="http://www.w3.org/2000/svg" width="32" height="32"><path d="M27.06 17.94c-.57-.07-1.18.16-1.74.08-.35-.05-.92-.46-.91-.67.04-.5.52-.43.97-.37.69.09 1.41.09 2.102.03.48-.04.82-.35.67-.9-.4-1.51-.91-2.95-2.53-3.61-.34-.14-.92-.34-.92-.34s-.02-.6-.18-.98c-.27-.63-1.15-.9-1.15-.9s-.32.59-.29 1.27c.02.56.24 1.01.24 1.01s-1.15 1.64-2.4 1.65c-.77.01-1.53-.06-2.3-.1-3.39-.19-6.35 2.18-6.73 5.39-.06.47-.01.95-.01 1.438-1.04-.21-1.45-.62-1.39-1.5.04-.55.15-1.14.41-1.61.56-1.06 1.21-2.07 1.87-3.07.99-1.49.95-2.79-.25-4.12C10.91 8.87 8.85 8.21 6.5 8.58c-2.5.4-3.38 2.38-2.09 4.55.84 1.42 1.96 2.48 3.87 2.6-.1.79-.18 1.54-.3 2.28-.4 2.47.71 4.14 3.14 4.69.25.06.5.1.75.15.41.08 1.07 1.02.99 1.41-.23 1.2-.1 1.36 1.14 1.36 3.1.01 6.19 0 9.29 0 .22 0 .45-.03.66-.04.22-1.44-.76-1.972-3.1-1.73 2.26-1.62 2.27-4.68-1.29-6.04 1.55.01 2.56.64 3.25 1.82.24.41.81.6 1.2.51.66-.15 1.09-.36 1.39-.48.57-.23 1.07-.67 1.76-.19.2.13.67.02.91-.13.12-.08.13-.61-.01-.76-.26-.29-.65-.59-1-.64zm-1.05-3.08s-.6.16-.98-.22c-.26-.26-.23-.59-.2-.87 0 0 .51-.2.95.18.4.36.23.91.23.91z"/></svg>