<svg width="32" height="32" xmlns="http://www.w3.org/2000/svg"><path d="M21.135 17.73c0-.433-.118-.825-.354-1.175a2.026 2.026 0 0 0-.905-.757c-.05.332-.128.67-.24 1.016a.746.746 0 0 1-.286.42.774.774 0 0 1-.465.155.972.972 0 0 1-.25-.034.775.775 0 0 1-.468-.426.868.868 0 0 1-.042-.646c.16-.523.24-1.05.24-1.58 0-.905-.212-1.743-.636-2.512-.424-.77-1-1.38-1.73-1.828a4.445 4.445 0 0 0-2.375-.674c-.93 0-1.788.27-2.573.806a4.796 4.796 0 0 0-1.74 2.143 4.25 4.25 0 0 1 1.96 1.17c.152.17.228.372.228.608a.837.837 0 0 1-.23.596.743.743 0 0 1-.562.243.776.776 0 0 1-.573-.243c-.52-.552-1.145-.828-1.875-.828-.736 0-1.364.274-1.885.822-.52.55-.78 1.214-.78 1.994s.26 1.445.78 1.994c.52.55 1.15.823 1.885.823h10.896c.55 0 1.016-.205 1.4-.614.387-.41.58-.9.58-1.475zm1.594 0c0 1.047-.35 1.938-1.048 2.674-.698.737-1.54 1.105-2.526 1.105H8.26c-1.173 0-2.177-.44-3.01-1.32C4.417 19.31 4 18.246 4 17c0-1.126.347-2.11 1.042-2.95.694-.838 1.56-1.34 2.593-1.5.43-1.356 1.198-2.453 2.303-3.293C11.041 8.42 12.27 8 13.624 8c1.632 0 3.05.584 4.255 1.75 1.205 1.168 1.887 2.602 2.047 4.303.806.184 1.474.62 2.005 1.31.532.687.797 1.477.797 2.368zm2.603 0c0 1.29-.336 2.464-1.01 3.525a.756.756 0 0 1-.667.364.744.744 0 0 1-.448-.144.794.794 0 0 1-.333-.536.847.847 0 0 1 .125-.635c.493-.766.74-1.624.74-2.574 0-.95-.247-1.807-.74-2.572a.837.837 0 0 1-.125-.63.83.83 0 0 1 .333-.54.712.712 0 0 1 .6-.128.8.8 0 0 1 .515.36c.674 1.044 1.01 2.215 1.01 3.51zm2.667 0c0 1.798-.465 3.43-1.396 4.894a.75.75 0 0 1-.666.376.728.728 0 0 1-.438-.144.85.85 0 0 1-.34-.54.82.82 0 0 1 .12-.63 7.353 7.353 0 0 0 1.126-3.955c0-1.435-.375-2.75-1.125-3.942a.83.83 0 0 1-.12-.635.812.812 0 0 1 .34-.536.72.72 0 0 1 .594-.132.77.77 0 0 1 .51.364c.93 1.457 1.396 3.084 1.396 4.88z" fill-rule="evenodd"/></svg>