<svg xmlns="http://www.w3.org/2000/svg" width="32" height="32"><circle cx="12.983" cy="6.15" r="1.952"/><circle cx="19.727" cy="6.15" r="1.952"/><path d="M19.923 8.99h-7.845a5.484 5.484 0 0 0-5.484 5.483v7.846a5.483 5.483 0 0 0 5.484 5.482h7.845a5.484 5.484 0 0 0 5.483-5.483v-7.847a5.485 5.485 0 0 0-5.483-5.484zm-4.21 4.072c-1.84.882-2.32 3.726-2.354 4.79-.034 1.065-.034 3.43 1.575 4.86 1.608 1.43 3.615.83 4.98.364 1.365-.465 1.93 1 1.1 1.698-.833.698-2.563 1-4.36 1-5.493 0-6.59-3.73-6.756-7.39-.167-3.658 2.428-7.952 7.503-7.52 5.074.433 4.643 5.19 3.078 6.922-1.563 1.73-4.226 2.062-5.39 1.862-1.165-.198-.833-1.29 0-1.597.225-.08.818-.134 1.22-.2.99-.156 2.362-1.45 2.396-2.827.04-1.677-1.353-2.75-2.993-1.96z"/></svg>