<svg width="32" height="32" xmlns="http://www.w3.org/2000/svg"><g fill-rule="evenodd"><path d="M2.832 12.087l-.212 2.538h1.058L2.62 25.73h3.597l.846-8.885s1.692-1.163 2.855-1.586c1.164-.424 2.01-.107 1.693 1.268-.21 1.692-.846 9.202-.846 9.202h3.596s.74-7.72 1.058-9.942c.212-2.22-.53-4.442-3.913-3.914-1.904.212-4.337 1.693-4.337 1.693s-.105-1.27-1.375-1.27c-1.48-.21-2.96-.21-2.96-.21M29.38 12.087h-4.442L20.6 18.644c.425-4.547.848-9.73 1.06-10.26.105-1.056-.212-2.008-1.693-2.114h-2.644l-.317 2.538h1.058l-1.48 16.817h3.7s.318-3.386.742-7.086l3.7 7.085h3.81l-3.49-6.875 4.333-6.663z"/></g></svg>