<svg xmlns="http://www.w3.org/2000/svg" width="32" height="32"><path d="M20.74 23.55c-.95-.11-1.54-.54-1.82-1.44-2.18.99-4.34.99-6.39-.01-.43.51-.82.96-1.26 1.48.04.06.16.2.27.35.56.72.82 1.55.83 2.45 0 .28-.1.41-.4.41-2.31-.01-4.62-.01-6.93 0-.43 0-.43-.26-.43-.55.03-2.02 1.66-3.7 3.68-3.77.21-.01.41 0 .69 0-.19-1.06.08-1.87 1.09-2.34-.1-.17-.17-.3-.26-.43-1.06-1.65-1.43-3.43-1.02-5.35.07-.34-.02-.55-.25-.79-1.15-1.16-2.29-2.34-3.43-3.52.46.06.96.12 1.58.2-.28-.61-.52-1.12-.79-1.72.73.13 1.39.25 2.1.38.1-.56.2-1.07.31-1.66.47.21.91.4 1.4.62.13-.45.25-.84.39-1.31.3.26.57.49.88.76.19-.3.35-.55.56-.87.53.5 1.07.73 1.58-.1.38.61.78.56 1.26.22.11-.08.39.06.59.1.19.04.38.14.56.12.16-.02.29-.21.45-.26.14-.04.32-.02.45.04.15.07.26.22.41.37.28-.21.54-.41.84-.65.52.65 1.1.7 1.69.02.32.35.6.65.97 1.06.23-.33.44-.62.71-1 .31.56.53.97.77 1.43.34-.18.64-.35.93-.51.04.04.08.07.08.09.1 1.03.1 1.03 1.18 1.07.26.01.52.04.85.07-.1.53-.188 1.02-.298 1.56.47-.04.87-.07 1.38-.11-.61.66-1.15 1.25-1.69 1.84-.49.53-.99 1.05-1.46 1.6-.12.14-.23.38-.19.55.5 2.18.15 4.19-1.15 6.03-.03.04-.04.09-.08.2.94.51 1.17 1.33.88 2.41.21-.03.37-.05.52-.08 2.352-.41 4.432 1.2 4.622 3.57.05.64-.01.7-.63.7-2.18 0-4.37-.012-6.56.01-.44.01-.58-.14-.56-.57.016-.98.385-1.83 1.096-2.67zm.98-7.95a5.99 5.99 0 0 0-6.04-5.97c-3.29.01-5.98 2.72-5.98 6 .01 3.29 2.75 6 6.05 5.99 3.29-.02 5.99-2.74 5.97-6.02z"/></svg>