<svg width="32" height="32" xmlns="http://www.w3.org/2000/svg"><path d="M24.363 9.46h1.358c.14 0 .28.134.28.268v3.478c0 .134-.14.268-.28.268h-1.357l.104 10.103h-6.272V8.353h6.272V9.46zM6 8.076L17.708 6v19.792L6 23.716V8.076zm8.53 11.538V11.95l-1.42.075v5.078a.16.16 0 0 1-.06-.066c-.867-1.58-1.735-3.16-2.6-4.74-.047-.09-.1-.117-.198-.11-.273.02-.546.03-.818.044-.166.01-.332.023-.505.035v.1c0 2.287 0 4.575-.003 6.863 0 .085.025.112.11.116.305.014.61.037.915.054.084.005.168 0 .253 0v-5.066l.026.044 2.748 5.115c.027.05.057.07.114.073.293.014.585.037.877.05.182.007.366 0 .56 0zm3.665-9.047v.83h4.46v-.83h-4.46zm0 2.02v.83h4.46v-.83h-4.46zm0 2.022v.83h4.46v-.83h-4.46zm0 2.02v.83h4.46v-.83h-4.46zm0 2.02v.83h4.46v-.83h-4.46zm0 2.02v.83h4.46v-.83h-4.46zm6.55-6.733h.976c.14 0 .28.133.28.267v3.48c0 .132-.14.266-.28.266h-.974v-4.013zm0 4.583h.976c.14 0 .28.134.28.267v3.48c0 .133-.14.267-.28.267h-.974V18.52z" fill-rule="evenodd"/></svg>