<svg xmlns="http://www.w3.org/2000/svg" width="32" height="32"><path d="M13.876 5.59v19.186h8.135V5.59h-8.134zm7.907 18.956h-7.678V5.818h7.678v18.728z"/><path d="M19.447 26.783l-5.554-2.21.033-18.778 5.384-1.738.137 22.726zm-5.324-2.365l5.094 2.027-.133-22.077-4.864 1.624-.097 18.426zM10.732 15.45l.122-2.006-1.148 1.154z"/><path d="M16.897 15.33c-.575-.562-1.51-2.23-2.096-3.516-.03-.064-.05-.12-.065-.164-.087-.238-.15-.316-.544-.482a2.563 2.563 0 0 0-.385-.123c-.258-.064-.258-.064-.21-.27.03-.128.064-.232.1-.322.105-.013.21-.02.323-.066.356-.14.612-.445.737-.887.155-.552.08-1.25-.177-1.59-.193-.257-.538-.417-.898-.417-.45 0-.83.245-1.032.672-.408.856-.016 1.658-.004 1.678l.036.076-.684.806.004.026c-.038.03-.194.12-.738.12h-.214c-.568 0-.642.04-.866.48-.05.094-.108.21-.193.358a48.6 48.6 0 0 0-1.146 2.098 5.757 5.757 0 0 1-.146.27c-.203.365-.432.774-.33 1.12a.63.63 0 0 0 .33.376c.283.148.466.26.644.367.206.126.4.246.73.41.526.263.556.408.52 1.302l-.007.19c-.015.38-.015.38-.06.707-.027.215-.077.57-.158 1.256-.12.986-.374 2.324-.598 3.504-.213 1.107-.394 2.066-.43 2.547-.07.883-.127 1.646.697 2.012.11.05.21.074.3.074a.37.37 0 0 0 .324-.168c.25-.376-.08-1.19-.118-1.282-.17-.402.394-2.982.842-4.46.067-.224.133-.455.195-.68.236-.843.505-1.798.853-1.798.34.043.683 1.016.858 2.415l.066.51c.112.913.266 2.162.394 2.955.146.904.156.98.812 1.214l.123.045c.325.12.433.166.5.193.105.048.136.057.573.19.11.032.213.05.304.05.284 0 .415-.162.44-.314.046-.254-.162-.607-.65-.785l-.084-.032c-.648-.237-.73-.27-.846-.77a30.74 30.74 0 0 1-.117-1.146c-.12-1.24-.3-3.117-.453-3.906-.226-1.17-.263-4.514-.11-5.654a2.99 2.99 0 0 1 .09-.494c.05.05.115.133.172.203.092.118.208.265.35.413.312.332.52.572.72.805.192.223.39.453.674.756.547.582.956.88 1.217.88a.275.275 0 0 0 .268-.175c.128-.314-.23-.994-.836-1.58z"/><circle cx="18.332" cy="16.787" r=".403"/></svg>