<svg width="32" height="32" xmlns="http://www.w3.org/2000/svg"><path d="M5.15 15.145c0-5.043 4.095-9.772 9.494-10.447 3.87-.45 6.795 1.036 8.82 2.972 1.89 1.8 3.015 4.098 3.284 6.8.225 2.7-.36 5.043-1.934 7.25-1.575 2.162-4.68 4.548-8.55 4.548H11V15.866c.045-2.297.81-4.278 3.6-5.224 2.43-.72 5.264.63 6.12 3.198.9 2.746-.406 4.593-1.936 5.72-1.53 1.125-3.914 1.125-5.49.044v3.557c1.036.497 2.34.632 3.286.587 3.42-.496 6.074-2.432 7.2-5.36 1.17-3.106.36-6.71-2.07-8.96-2.925-2.387-6.12-2.973-9.54-1.306-2.384 1.217-4.05 3.693-4.454 6.395V26.27h-2.52L5.15 15.144z" fill-rule="nonzero"/></svg>