<svg width="32" height="32" xmlns="http://www.w3.org/2000/svg"><g fill-rule="evenodd"><path d="M23.595 11.407c-.02.124-.04.25-.066.38-.855 4.398-3.776 5.918-7.508 5.918h-1.9a.923.923 0 0 0-.912.783l-1.248 7.94a.487.487 0 0 0 .48.565h3.37c.398 0 .737-.29.8-.685l.033-.172.635-4.038.04-.222a.81.81 0 0 1 .8-.687h.505c3.265 0 5.82-1.33 6.568-5.177.312-1.607.15-2.95-.675-3.893a3.22 3.22 0 0 0-.923-.713"/><path d="M22.53 10.152a9.26 9.26 0 0 1-.063.36c-.87 4.398-3.846 5.918-7.647 5.918h-1.935a.943.943 0 0 0-.716.325l-1.075 6.83H7.097a.557.557 0 0 1-.55-.646L9.246 5.79a.926.926 0 0 1 .915-.785h6.476c2.23 0 3.974.472 4.94 1.575.876 1.002 1.23 1.955.976 3.58a.457.457 0 0 0-.02-.01z"/></g></svg>