<svg xmlns="http://www.w3.org/2000/svg" width="32" height="32"><path d="M17.096 17.403c4.813 0 7.688-2.352 7.688-6.29 0-3.92-2.417-6.08-6.805-6.08h-4.416a.513.513 0 0 0-.513.512v8.99h-1.83a2.24 2.24 0 0 0-1.745-.827 2.264 2.264 0 0 0-2.26 2.262 2.263 2.263 0 0 0 2.26 2.26c.685 0 1.317-.305 1.744-.826h1.83v5.674h-1.52a.512.512 0 0 0-.433.787l2.955 4.685a.514.514 0 0 0 .868 0l2.956-4.685a.512.512 0 0 0-.433-.787h-1.52v-5.674h1.173zm0-2.867H15.92V7.9h2.06c3.266 0 3.936 1.284 3.936 3.213 0 2.303-1.578 3.423-4.82 3.423z"/></svg>