<svg xmlns="http://www.w3.org/2000/svg" width="32" height="32"><path d="M16.86 7.2c1.19 0 2.2.17 3.04.52.84.35 1.52.81 2.04 1.37.52.57.91 1.22 1.15 1.95s.36 1.48.36 2.27c0 .76-.12 1.52-.36 2.25a5.16 5.16 0 0 1-1.15 1.96c-.52.57-1.2 1.03-2.04 1.38-.84.35-1.85.52-3.04.52h-2.62v6.83h-4.19V7.2h6.81zm-1.15 8.97c.48 0 .94-.04 1.39-.11.45-.07.84-.21 1.17-.41.34-.2.61-.49.81-.87.2-.38.312-.86.312-1.47s-.1-1.1-.31-1.47c-.2-.37-.48-.66-.812-.87-.34-.2-.73-.34-1.17-.41-.44-.07-.91-.1-1.39-.1h-1.48v5.71h1.48z"/></svg>