<svg xmlns="http://www.w3.org/2000/svg" width="32" height="32"><path d="M22.45 16.39c.2-.38 1.19-2.29 2.02-3.95 1.26-2.52 2.03-4.99 2.04-5.01.01-.05.01-.09-.02-.13a.143.143 0 0 0-.12-.06l-3.26.01a.15.15 0 0 0-.14.1s-.53 1.41-1.06 2.76a20.46 20.46 0 0 1-1.17 2.46c-.35-.69-1.36-2.58-2.6-3.84-1.21-1.23-2.95-1.93-4.76-1.93-2 0-3.9.86-5.34 2.44-3.16 3.45-2.75 8.44-2.09 10.6.93 3.03 2.96 4.94 5.58 5.26.56.07 1.09.1 1.58.1 2.35 0 4.05-.78 5.51-2.52.82-.99 1.49-2.22 1.76-2.76.23.46.7 1.43 1.1 2.37.59 1.4.94 2.4.95 2.4.02.06.08.1.14.1l3.38.01c.05 0 .1-.02.12-.07a.24.24 0 0 0 .02-.14c-.01-.02-.98-2.45-1.82-4.32-.85-1.85-1.65-3.53-1.82-3.88zm-6.33-4.99c1.08 1.7 2.41 4.58 2.61 5.02-.16.4-1.16 2.78-3.02 4.77-.71.76-1.6 1.17-2.52 1.17-1.13 0-2.15-.62-2.81-1.7-1.44-2.36-1.38-5.85.15-8.68.77-1.43 1.91-2.28 3.06-2.28.94-.01 1.82.58 2.53 1.7z"/></svg>