<svg width="32" height="32" xmlns="http://www.w3.org/2000/svg"><path d="M16.696 22.73c-.787-1.55-1.712-3.117-3.514-3.117-.345 0-.69.057-1.005.2l-.613-1.225c.747-.64 1.953-1.148 3.503-1.148 2.41 0 3.65 1.162 4.63 2.645.585-1.266.862-2.976.862-5.095 0-5.292-1.656-8.01-5.52-8.01-3.81 0-5.457 2.718-5.457 8.01 0 5.264 1.646 7.953 5.456 7.953.604 0 1.152-.067 1.656-.214zm.945 1.846c-.834.224-1.722.348-2.6.348C9.965 24.924 5 20.876 5 14.99 5 9.048 9.966 5 15.04 5c5.156 0 10.075 4.02 10.075 9.99 0 3.32-1.55 6.02-3.803 7.765.728 1.09 1.477 1.814 2.52 1.814 1.14 0 1.598-.88 1.675-1.57h1.483c.087.918-.373 4.737-4.517 4.737-2.51 0-3.837-1.455-4.832-3.16z" fill-rule="evenodd"/></svg>