<svg width="32" height="32" xmlns="http://www.w3.org/2000/svg"><path d="M8.948 11.36c-.015-.01-.03-.017-.045-.026-.28.563-.562 1.125-.843 1.688.305-.205.557-.436.803-.672.04-.038.08-.098.082-.148.007-.28.003-.562.003-.842m.767 8.076a22.75 22.75 0 0 1-.848-4.652c-.064.027-.076.084-.11.12-.563.614-.912 1.352-1.183 2.134-.105.3-.21.602-.147.936.06.315.092.635.155.95.015.07.1.165.167.177.638.12 1.28.222 1.965.336m-1.88.428c.9 3.33 3.957 6.374 7.7 6.97-.188-.123-.33-.214-.47-.308-2.11-1.402-3.71-3.27-4.794-5.59-.212-.455-.447-.7-.94-.757-.5-.06-.99-.206-1.494-.316m3.968.628c.04.087.062.15.092.21.826 1.615 1.944 2.976 3.416 4.007 1.318.92 2.745 1.557 4.386 1.512.688-.02 1.4-.033 2.01-.377 3.138-1.767 4.93-4.494 5.26-8.142.264-2.9-.583-5.495-2.5-7.66-2.272-2.562-5.123-3.657-8.485-3.28-1.796.203-3.384.942-4.828 2.052-.496.38-.726.87-.87 1.442-.034.144-.07.287-.094.432-.03.18-.052.362-.084.592.088-.054.124-.074.157-.098 1.065-.75 2.243-1.218 3.504-1.477 1.242-.255 2.492-.27 3.75-.14.8.083 1.2.62 1.018 1.463-.096-.007-.196-.015-.295-.02-1.268-.08-2.528-.043-3.773.248-1.683.394-3.092 1.306-4.38 2.442-.054.048-.083.165-.073.244.08.646.16 1.294.267 1.936.2 1.184.484 2.344.96 3.45.078.177.177.247.366.23.98-.085 1.97-.106 2.94-.254 2.362-.36 4.567-1.166 6.538-2.583.117-.084.248-.154.382-.2.297-.104.513-.003.59.307.062.258.086.532.086.8-.002.467-.212.794-.65.99a21.165 21.165 0 0 1-8.75 1.872h-.938m-4.792-.76c-.025 2.34.734 4.43 2.012 6.354l-.067.06c-.377-.35-.784-.676-1.126-1.06C6.76 23.88 6.18 22.43 5.947 20.83c-.06-.412-.093-.83-.113-1.245-.01-.208-.095-.288-.278-.364-.94-.39-1.88-.79-2.806-1.217-.28-.128-.52-.348-.75-.57.612.265 1.215.557 1.84.783.62.224 1.265.38 1.913.57.074-.492.126-.93.21-1.36.173-.91.49-1.768.913-2.587.075-.145.14-.3.174-.46a10.877 10.877 0 0 1 2.018-4.283c.086-.11.153-.25.188-.39.223-.868.546-1.696.938-2.5.24-.487.602-.827 1.083-1.053 1.686-.79 3.427-1.373 5.287-1.52 1.953-.153 3.815.208 5.592 1.055 2.28 1.085 3.943 2.8 4.963 5.152.712 1.643.97 3.367.854 5.164-.146 2.27-.82 4.356-1.956 6.295-.924 1.576-2.202 2.795-3.7 3.782-.534.352-1.08.69-1.626 1.02a3.406 3.406 0 0 1-1.65.476 36.13 36.13 0 0 1-2.113.012c-4.264-.082-8.04-2.91-9.515-7.036-.076-.212-.133-.43-.203-.645-.025-.076-.06-.147-.092-.22-.036.014-.072.028-.108.04" fill-rule="evenodd"/></svg>