<svg width="32" height="32" xmlns="http://www.w3.org/2000/svg"><path d="M21.23 25.64A10.694 10.694 0 0 1 15.958 27c-1.872 0-3.624-.453-5.257-1.36a13.257 13.257 0 0 0 3.375-3.05c.93-1.194 1.558-2.485 1.883-3.873.334 1.388.967 2.68 1.898 3.874a13.257 13.257 0 0 0 3.374 3.05zM14.14 5v7.01c0 2.43-.605 4.643-1.813 6.642-1.208 2-2.786 3.477-4.734 4.43C5.863 21.013 5 18.627 5 15.93c0-1.802.4-3.486 1.196-5.052A10.962 10.962 0 0 1 9.484 6.98 10.734 10.734 0 0 1 14.14 5zM27 15.928c0 2.698-.864 5.083-2.592 7.155-1.95-.954-3.527-2.43-4.735-4.43-1.208-2-1.812-4.214-1.812-6.643V5c1.71.29 3.262.95 4.656 1.98a10.962 10.962 0 0 1 3.286 3.896 10.975 10.975 0 0 1 1.196 5.052z" fill-rule="evenodd"/></svg>