<svg width="32" height="32" xmlns="http://www.w3.org/2000/svg"><g fill-rule="evenodd"><path d="M16 22.91c-.35 0-.706-.01-1.055-.036l-.095-.006-.084.046c-1.668.914-3.644 1.438-5.75 1.53a10.476 10.476 0 0 0 2.575-1.702l.41-.373-.525-.177c-1.732-.584-3.194-1.487-4.228-2.614-1.043-1.138-1.595-2.45-1.595-3.8 0-3.93 4.642-7.128 10.348-7.128s10.348 3.198 10.348 7.13c0 3.93-4.642 7.13-10.348 7.13m7.734-12.67C21.664 8.796 18.917 8 16 8s-5.664.796-7.734 2.242C6.16 11.712 5 13.68 5 15.782c0 1.513.61 2.978 1.767 4.238 1 1.09 2.363 1.98 3.967 2.598-.96.77-2.153 1.397-3.482 1.825l-1.63.526 1.71.11c.332.02.672.03 1.01.03 2.43 0 4.728-.545 6.653-1.58.333.022.67.033 1.005.033 2.917 0 5.664-.796 7.734-2.242C25.84 19.85 27 17.883 27 15.78c0-2.1-1.16-4.067-3.266-5.538"/><path d="M21.628 15.563c-.352.38-.833.568-1.443.568.18-.997.43-1.712.747-2.142.13-.19.256-.312.38-.368a.98.98 0 0 1 .406-.084c.146 0 .255.054.328.162.073.107.11.26.11.458 0 .576-.176 1.045-.528 1.407m1.606-2.17c-.404-.343-1.013-.515-1.83-.515-1.313 0-2.348.426-3.103 1.278-.704.792-1.056 1.837-1.056 3.137 0 .834.228 1.48.683 1.936.232.24.522.425.87.554.347.13.817.194 1.41.194.592 0 1.163-.142 1.713-.426.266-.138.48-.31.644-.517.163-.206.245-.47.245-.794 0-.32-.11-.556-.323-.702-.146.24-.393.437-.74.587-.35.15-.686.226-1.012.226-.326 0-.577-.074-.753-.225-.177-.15-.265-.423-.265-.82 0-.19.018-.395.052-.62 2.61 0 3.915-.756 3.915-2.27 0-.423-.15-.763-.45-1.02"/><path d="M16.085 17.886a6.363 6.363 0 0 1-.72-1.936c.643-.146 1.152-.447 1.525-.904.374-.456.56-1.047.56-1.775 0-.726-.287-1.27-.862-1.632-.576-.36-1.484-.542-2.725-.542-1.24 0-2.286.048-3.136.142l-1.57 8.482h2.755l1.48-7.81a.966.966 0 0 1 .182-.013h.283c.73.034 1.095.486 1.095 1.355 0 .697-.16 1.21-.477 1.543-.317.33-.794.505-1.43.523h-.09c.052 1.385.322 2.517.812 3.395.232.404.494.716.786.936.292.218.624.328.998.328s.692-.08.954-.24c.262-.158.457-.42.586-.78-.36-.172-.695-.53-1.005-1.072"/></g></svg>