<svg width="32" height="32" xmlns="http://www.w3.org/2000/svg"><g fill-rule="evenodd"><path d="M17.07 10.567C15.84 5.55 12.325 2.137 9.183 0H3.456c2.347.99 9.287 4.443 10.946 11.218C15.597 16.098 10.51 22.495 0 29.464V32h1.14c3.528-2.32 6.525-4.612 8.927-6.84 5.72-5.3 8.076-10.212 7.003-14.593z"/><path d="M24.412 26.67c2.764-4.31 3.686-8.74 2.664-12.815-1.07-4.266-4.066-8.55-8.904-12.732-.46-.395-.91-.77-1.35-1.122h-4.615C15.857 2.51 22.777 8 24.41 14.524c1.634 6.51-3.224 13.137-8.567 17.478h4.132c1.527-1.476 3.105-3.255 4.437-5.33z"/></g></svg>