<svg xmlns="http://www.w3.org/2000/svg" width="32" height="32"><g><path d="M18.34 24.31c-.19.18-.32.2-.51-.01-1.28-1.44-2.57-2.87-3.86-4.3-.19-.21-.15-.35.05-.51.3-.25.58-.51.89-.78-.12-.14-.2-.25-.29-.35-.79-.89-1.57-1.78-2.37-2.65-.26-.28-.24-.44.05-.66.29-.21.54-.48.83-.73-1.01-1.12-1.99-2.21-3.01-3.33 1.62-1.45 3.19-2.87 4.78-4.3.52.56 1.01 1.08 1.51 1.62.75-.67 1.49-1.31 2.2-1.97.24-.22.4-.2.62.02.4.4.83.78 1.27 1.19.23-.21.52-.47.83-.75-1.02-.56-2.03-.97-3.12-1.18-.53-.1-1.06-.19-1.59-.28h-1.26c-.53.09-1.06.18-1.59.28-4.31.85-7.82 4.55-8.44 8.88-.05.35-.13.7-.19 1.05v1.26c.06.35.14.7.19 1.05.74 4.85 4.86 8.9 10.32 9.12 1.5.06 2.97-.22 4.37-.79.94-.39 1.83-.88 2.67-1.54-.72-.82-1.41-1.6-2.11-2.41-.79.73-1.52 1.39-2.24 2.07z"/><path d="M20.68 20.19c-.76-.84-1.48-1.65-2.25-2.5-.85.76-1.66 1.5-2.51 2.25l2.26 2.5c.86-.76 1.67-1.49 2.5-2.25zM12.43 10.94c-.06.05-.06.25-.01.31.68.77 1.37 1.53 2.09 2.34.84-.76 1.66-1.49 2.5-2.25-.76-.84-1.49-1.65-2.26-2.5-.8.72-1.57 1.4-2.32 2.1zM16.61 17.75c.49-.41.96-.85 1.43-1.28.26-.24.52-.48.81-.74-.77-.85-1.5-1.66-2.25-2.49-.85.77-1.66 1.5-2.5 2.25.73.8 1.41 1.57 2.11 2.32.05.06.3.01.4-.06zM20.44 15.59c.63-.57 1.23-1.11 1.85-1.68-.58-.64-1.11-1.24-1.67-1.85-.64.58-1.24 1.11-1.85 1.67.56.63 1.1 1.22 1.67 1.86zM23.95 18c-.57-.63-1.1-1.22-1.67-1.86l-1.85 1.67c.58.64 1.11 1.23 1.67 1.85.63-.56 1.21-1.09 1.85-1.66zM18.84 8.17c-.64.57-1.24 1.12-1.86 1.68.58.64 1.12 1.23 1.68 1.85.58-.52 1.12-1 1.65-1.5.07-.06.09-.28.03-.34-.48-.57-.97-1.11-1.5-1.69zM23.74 20.27c-.47.39-.91.82-1.37 1.22-.2.17-.18.3-.02.48.42.46.83.93 1.27 1.39.07.07.28.11.33.07.57-.49 1.12-1 1.7-1.52-.52-.58-1-1.13-1.51-1.66-.06-.07-.31-.05-.4.02zM23.83 13.77c.07.07.27.1.34.05.35-.28.68-.6 1.04-.93-.38-.42-.73-.81-1.09-1.21-.41.38-.79.72-1.21 1.1.33.36.61.69.92.99zM22.35 10.15c.41-.38.8-.72 1.21-1.09-.38-.42-.72-.8-1.09-1.21-.41.37-.79.71-1.21 1.09.38.42.72.8 1.09 1.21zM25.65 17.81c.43-.4.81-.74 1.2-1.1-.33-.37-.61-.7-.92-1-.07-.06-.27-.08-.34-.03-.35.28-.68.6-1.03.92.37.42.71.8 1.09 1.21z"/></g></svg>