<svg width="32" height="32" xmlns="http://www.w3.org/2000/svg"><g fill-rule="evenodd"><path d="M25.198 16.692c-.08.057-.157.11-.235.163V8.977C24.963 7.884 24.14 7 23.128 7H8.858c-1.012 0-1.835.884-1.835 1.977v7.885c-.08-.055-.163-.11-.245-.17-.608-.424-1.006.154-.634.706.726.89 2.105 1.992 4.22 2.86-2.237 7.624 5.463 8.835 5.345 4.927l.007-3.844.542.136.006 3.71c-.117 3.907 7.588 2.696 5.345-4.927 2.116-.87 3.496-1.973 4.22-2.862.374-.552-.024-1.13-.632-.706zm-17.086.446V9.87c0-1.383.352-1.818 1.62-1.818h12.63c1.2 0 1.624.516 1.624 1.82v7.578c-2.743 1.483-5.105 1.224-6.386 1.184-.945-.047-1.294.36-1.34.99a6.678 6.678 0 0 1-.694-.58l-.01.03c-.187-.3-.55-.47-1.18-.44-1.263.04-3.573.29-6.264-1.12v-.376z"/><path d="M15.617 15.467c0-1.236-1.052-2.237-2.35-2.237-1.297 0-2.35 1-2.35 2.237 0 1.236 1.053 2.237 2.35 2.237 1.298 0 2.35-1 2.35-2.237zM18.95 17.704c1.298 0 2.35-1 2.35-2.237 0-1.236-1.052-2.237-2.35-2.237-1.297 0-2.35 1-2.35 2.237 0 1.236 1.053 2.237 2.35 2.237z"/></g></svg>