<svg width="32" height="32" xmlns="http://www.w3.org/2000/svg"><path d="M20.808 6.202h-9.52a1.79 1.79 0 0 0-1.793 1.792v18.95l2.735-1.98h8.485a1.79 1.79 0 0 0 1.79-1.79V7.993c0-.943-.66-1.792-1.697-1.792zm-1.413 6.6H17.32v-2.546h-2.64v2.452l4.43 4.432c.19.188.284.47.284.754v4.054c0 .85-.472 1.226-1.414 1.226h-4.054c-.85 0-1.32-.377-1.32-1.226V18.27h2.074v2.83h2.64v-2.83l-4.43-4.43c-.19-.188-.284-.47-.284-.754V9.502c0-.848.47-1.32 1.32-1.32h4.054c.848 0 1.414.472 1.414 1.32v3.3z" fill-rule="evenodd"/></svg>