<svg width="32" height="32" xmlns="http://www.w3.org/2000/svg"><path d="M11.847 21.13c-.015.175-.105.262-.27.262a.238.238 0 0 1-.176-.074.3.3 0 0 1-.083-.188l-.158-2.748.157-5.964c0-.076.026-.14.08-.194a.247.247 0 0 1 .18-.08c.075 0 .137.026.186.08.048.053.077.118.084.194l.18 5.964-.18 2.748zm3.33-.057c0 .1-.035.175-.102.228a.31.31 0 0 1-.226.104.32.32 0 0 1-.26-.126.29.29 0 0 1-.068-.194v-.01l-.124-2.692.112-6.603.012-.07a.3.3 0 0 1 .146-.273.336.336 0 0 1 .18-.057c.06 0 .12.02.182.057a.3.3 0 0 1 .146.274l.136 6.683-.124 2.406-.012.273zm-11.782-4.15l.226 1.46-.225 1.435c-.015.07-.05.103-.102.103-.052 0-.086-.033-.1-.102L3 18.382l.192-1.46c.015-.068.05-.103.1-.103.054 0 .088.034.103.102zm.97-.902l.294 2.362-.295 2.314c-.015.07-.052.103-.112.103-.068 0-.102-.04-.102-.115l-.26-2.303.26-2.36c0-.07.035-.104.103-.104.06 0 .097.035.112.103zm1.04-.432l.28 2.794-.28 2.702c0 .084-.043.126-.125.126-.076 0-.12-.042-.136-.126l-.237-2.702.237-2.794c.015-.092.06-.137.136-.137.082 0 .124.046.124.138zm1.06-.08l.26 2.874-.26 2.782c-.016.1-.068.148-.16.148-.096 0-.145-.05-.145-.148l-.237-2.782.237-2.874c0-.1.05-.148.146-.148.09 0 .143.05.158.148zm1.06.205l.237 2.67-.237 2.804c-.015.12-.075.182-.18.182a.162.162 0 0 1-.12-.052.18.18 0 0 1-.05-.13L6.95 18.38l.225-2.67c0-.044.017-.084.05-.12a.162.162 0 0 1 .12-.05c.105 0 .165.057.18.17zm1.06-1.665l.238 4.334-.237 2.805c0 .053-.02.1-.056.142a.176.176 0 0 1-.136.062c-.12 0-.188-.068-.203-.205l-.202-2.805.203-4.334c.016-.137.084-.205.204-.205.053 0 .098.02.136.063.037.042.056.09.056.142zm1.062-.98l.214 5.336-.213 2.783a.21.21 0 0 1-.062.154.206.206 0 0 1-.153.064c-.135 0-.21-.073-.225-.217l-.18-2.783.18-5.336c.015-.145.09-.217.225-.217.06 0 .11.022.153.064a.21.21 0 0 1 .062.154zm1.106-.457l.203 5.772-.203 2.76c-.015.16-.098.24-.25.24-.142 0-.22-.08-.236-.24l-.18-2.76.18-5.77c0-.07.025-.128.074-.177a.226.226 0 0 1 .334 0c.045.05.07.108.08.176zm2.19-.044l.168 5.816-.168 2.725a.275.275 0 0 1-.085.2.27.27 0 0 1-.39.005.323.323 0 0 1-.09-.205l-.157-2.725.158-5.816a.27.27 0 0 1 .084-.205.28.28 0 0 1 .198-.08.28.28 0 0 1 .197.08.27.27 0 0 1 .085.206zm1.116.216l.157 5.61-.158 2.692c0 .084-.03.156-.09.217a.29.29 0 0 1-.216.092.29.29 0 0 1-.214-.09.343.343 0 0 1-.102-.218l-.135-2.69.135-5.612a.355.355 0 0 1 .102-.228.29.29 0 0 1 .214-.09c.083 0 .153.03.21.09a.37.37 0 0 1 .095.228zm2.39 5.61l-.157 2.635c0 .1-.033.183-.1.25a.336.336 0 0 1-.25.104.336.336 0 0 1-.248-.102.387.387 0 0 1-.113-.25l-.067-1.3-.068-1.335.135-7.253v-.034a.432.432 0 0 1 .136-.274.356.356 0 0 1 .226-.08c.06 0 .116.02.17.058.104.06.164.16.18.296l.157 7.287zM29 18.177c0 .89-.312 1.648-.937 2.275a3.07 3.07 0 0 1-2.257.942h-8.87a.434.434 0 0 1-.248-.125.343.343 0 0 1-.1-.25V10.763c0-.175.104-.3.315-.376A5.398 5.398 0 0 1 18.945 10c1.467 0 2.74.5 3.815 1.5 1.075 1 1.677 2.23 1.805 3.69.4-.17.813-.252 1.24-.252.882 0 1.634.315 2.258.946.625.63.937 1.395.937 2.292z" fill-rule="evenodd"/></svg>