<svg xmlns="http://www.w3.org/2000/svg" width="32" height="32"><path fill-rule="evenodd" clip-rule="evenodd" d="M26.92 15.222c.936-.917 1.744-1.907 2.11-3.203.24-.84-.01-1.78-.67-2.337-.75-.64-1.638-.938-2.606-.977-.67-.03-1.344.012-2.016-.004a4.743 4.743 0 0 1-.934-.115 1.278 1.278 0 0 1-1.013-1.162 33 33 0 0 1-.055-1.965 3.74 3.74 0 0 0-.4-1.656c-.557-1.12-1.852-1.858-3.186-1.54a7.91 7.91 0 0 0-2.734 1.255 9.135 9.135 0 0 0-2.346 2.366c-.284.42-.652.68-1.195.637-.628-.05-1.264-.043-1.888-.123a8.562 8.562 0 0 0-3.077.17 2.89 2.89 0 0 0-1.5.85c-.978 1.06-1.08 2.393-.403 3.612.316.568.764 1.062 1.114 1.616.214.336.41.705.514 1.085.195.723-.112 1.345-.582 1.865-.66.734-1.373 1.418-2.037 2.148-.453.498-.81 1.078-.813 1.77-.007.934.425 1.69 1.15 2.253 1.01.783 2.203 1.05 3.443 1.147.54.04 1.083.024 1.622.05.69.032 1.11.203 1.287.99.16.718.312 1.437.46 2.152.11.53.29 1.025.584 1.48.108.166.235.318.355.48-.265.104-.523.18-.75.31-.133.074-.308.242-.3.357.01.137.17.326.31.38.436.16.885.304 1.342.394.474.095.96.132 1.442.17.933.07 1.862.194 2.804.087.923-.105 1.854-.14 2.772-.26.45-.06.89-.223 1.32-.38.142-.053.317-.238.322-.37.006-.125-.166-.332-.3-.375-.565-.186-1.14-.363-1.724-.467-.625-.11-1.267-.134-1.914-.196.237-.26.48-.507.706-.768.494-.566.958-1.163 1.48-1.7.513-.534 1.165-.82 1.92-.786.944.043 1.89.082 2.83.17.83.078 1.627-.003 2.404-.294 1.496-.562 2.215-2 1.802-3.544-.268-1.002-.87-1.742-1.652-2.39a7.966 7.966 0 0 1-1.16-1.226c-.253-.32-.198-.542.082-.846a39.23 39.23 0 0 1 1.082-1.114zm-.955 3.586c.81.712 1.33 1.684 1.232 2.85-.098 1.168-.486 2.105-2.203 2.366-1.718.26-3.662-.52-5.055 0-1.395.52-1.85 1.846-3.306 2.948-1.458 1.1-3.046 1.457-4.147.29-1.102-1.165-1.263-2.3-1.263-3.238 0-1.228-.325-1.88-1.815-1.88-1.783 0-3.565-.582-4.44-1.78-.874-1.2-.81-2.204.81-3.694 1.62-1.492 2.236-2.172 1.88-3.338-.356-1.166-1.685-1.977-1.685-3.66s1.1-2.656 3.304-2.787c2.203-.13 3.142.615 3.887.162.746-.453 1.587-1.782 2.56-2.463.972-.68 2.246-1.32 3.37-1.166 1.124.156 2.14 1.004 2.17 2.755.033 1.747-.323 2.915 1.136 3.27 1.457.358 2.04.1 2.818.163.778.065 1.944.52 2.43 1.395.486.876.356 2.43-.907 3.63-1.263 1.198-2.17 1.49-2.138 2.17s.55 1.293 1.36 2.008z"/><g><path d="M17.588 7.673c-.054.49.023.955-.287 1.33l-.69-1.23c-.572.397-.685 1.054-.56 1.603.082.373.306.65.698.722.4.072.75-.04 1.01-.378.353-.462.383-1.357.05-1.832-.05-.07-.126-.125-.22-.215z"/><path d="M18.746 6.99c-.525-.534-1.12-.804-1.768-.804-.207 0-.418.03-.63.086-1.23.326-2.08 1.043-2.52 2.13-.382.94-.3 1.93.222 2.717.51.77 1.362 1.217 2.337 1.228h.007c.03 0 .06-.002.09-.007l.24-.033c.202-.025.41-.055.622-.107.98-.242 1.666-.773 2.046-1.58.55-1.166.278-2.693-.646-3.63zm.12 3.382c-.333.705-.928 1.082-1.66 1.264-.264.065-.54.088-.81.13-1.654-.02-2.665-1.57-2.028-3.142.393-.966 1.15-1.528 2.13-1.79.713-.188 1.32.047 1.832.565.746.757.982 2.025.535 2.972z"/></g><g><path d="M11.848 9.18c-.472-.655-1.02-.792-1.4-.792-.32 0-.643.097-.962.29a5.02 5.02 0 0 0-.848.645A2.087 2.087 0 0 0 8.58 12.3c.454.475 1.1.748 1.777.748.27 0 .538-.044.8-.127.568-.183 1.25-.703 1.256-2.147v-.008c-.003-.506-.214-1.1-.565-1.586zm-.87 3.186c-1.258.403-2.462-.492-2.41-1.586.02-.412.177-.76.47-1.03.227-.218.48-.41.75-.573.61-.367 1.17-.238 1.587.343.308.428.453.908.455 1.25-.005.902-.3 1.418-.852 1.596z"/><path d="M10.914 9.93l-.106.745c-.02.004-.042.004-.064.01l-.463-.72c-.427.364-.386 1.112.06 1.394a.718.718 0 0 0 .436.09c.314-.036.496-.237.543-.534.06-.384-.123-.83-.406-.985z"/></g><path fill-rule="evenodd" clip-rule="evenodd" d="M7.55 18.066c.02.276-.137.51-.323.73-.24.28-.465.584-.875.64-.434.058-.753-.128-.99-.472-.23-.328-.21-.678 0-.998.157-.242.34-.474.55-.674.3-.29.673-.336 1.057-.183.367.147.582.504.58.956zM21.427 11.92l-.438.536s.475.344.953.902c-.335.3-2.61 2.264-5.837 3.192-2.94.847-5.462.04-6.195-.24.158-.34.356-.674.607-.938l-.584-.242s-1.19.85-1.044 2.43l.516.412s.063-.418.233-.95c.68.235 3.133.942 6.54.368 4.032-.68 6.112-3.58 6.112-3.58.188.273.356.58.47.906l.44-.533s-.098-1.557-1.775-2.262z"/></svg>