<svg width="32" height="32" xmlns="http://www.w3.org/2000/svg"><path d="M17.07 17.62l-.07-.002c-.668 0-1.292.186-1.823.507L9.855 15.14a3.428 3.428 0 1 0-1.77 3.1l5.393 3.027a3.524 3.524 0 0 0 7.044-.146l3.992-3.073a4.523 4.523 0 1 0-4.563-4.493l-2.88 4.065zm-.93 1.047a2.62 2.62 0 1 1-1.672 3.157l1.562.875a1.786 1.786 0 1 0 1.747-3.115l-1.636-.918zm-9.06-.99a2.527 2.527 0 0 1-3.175-2.44 2.524 2.524 0 0 1 4.962-.652l-1.613-.905a1.786 1.786 0 0 0-1.747 3.115l1.572.882zm17.394-1.106a3.047 3.047 0 1 0 0-6.094 3.047 3.047 0 0 0 0 6.095zm0-1a2.047 2.047 0 1 0 0-4.094 2.047 2.047 0 0 0 0 4.095z" fill-rule="evenodd"/></svg>