<svg xmlns="http://www.w3.org/2000/svg" width="32" height="32"><path fill-rule="evenodd" clip-rule="evenodd" d="M10.92 27.656c-.89-1.935-1.208-3.888-1.53-5.94-2 .363-3.98.84-6.167.783.906-1.972 2.13-3.614 3.376-5.304-1.265-.854-2.538-1.67-3.544-2.914.25-.155.447-.313.67-.406 1.41-.59 2.823-1.18 4.25-1.727.387-.15.504-.325.513-.74.022-1.092.088-2.185.197-3.27.077-.76.2-.847.96-.673 1.17.268 2.33.58 3.48.925.387.116.59.065.88-.233 1.1-1.144 2.246-2.24 3.38-3.35.088-.087.21-.14.377-.245.18.258.393.488.515.762.408.912.817 1.826 1.155 2.766.148.414.29.46.7.37 1.778-.385 3.565-.72 5.35-1.07.17-.03.346-.022.62-.038-.646 1.902-1.698 3.47-2.766 5.094 1.94.915 3.843 1.816 5.605 3.24-2.235 1.26-4.555 1.976-6.882 2.7.148 1.086.34 2.14.427 3.203.08.96.053 1.932.063 2.896.005.364-.158.454-.526.366-1.893-.45-3.66-1.22-5.397-2.066-.8-.39-.56-.453-1.212.27-1.193 1.33-2.425 2.627-3.652 3.925-.22.23-.504.402-.845.67zM6.596 17.07c.755.305 1.316.547 1.888.76.744.282 1.088.79 1.048 1.595-.034.682-.006 1.365-.006 2.104.73-.265 1.41-.47 2.056-.753 1.092-.48 2.048-.292 2.948.443.446.363.92.692 1.405 1.053.368-.632.722-1.205 1.042-1.795.562-1.037 1.39-1.645 2.584-1.773.766-.084 1.524-.246 2.303-.375-.286-.795-.562-1.543-.823-2.294-.166-.48-.11-.938.227-1.337.41-.487.828-.972 1.246-1.452.21-.24.43-.47.664-.725-.893-.273-1.71-.52-2.523-.78-.532-.17-.86-.52-.922-1.1-.067-.63-.155-1.26-.237-1.92-.816.308-1.618.597-2.41.906-.677.264-1.318.207-1.945-.14-.492-.272-.984-.544-1.413-.778-.705.842-1.254 1.866-2.107 2.42-.852.553-2.008.63-3.044.92.098.365.184.72.286 1.066.274.936.154 1.76-.61 2.437-.534.468-1.05.956-1.657 1.514z"/><path fill-rule="evenodd" clip-rule="evenodd" d="M19.837 11.622c-.42.732-.843 1.465-1.252 2.18L20.7 15.13l-.005.184c-.933.37-1.864.74-2.775 1.104v2.674c-.773-.264-1.486-.463-2.16-.754-.397-.172-.612-.168-.904.194-.498.62-1.08 1.173-1.63 1.752-.067-.015-.136-.028-.203-.044l-.72-2.293c-.86.12-1.762.25-2.662.378-.032-.05-.064-.102-.097-.15l1.364-2.214-1.87-1.382c.87-.346 1.566-.648 2.28-.895.334-.115.446-.264.435-.62-.02-.587.03-1.177.054-1.856.736.207 1.34.342 1.918.554.343.127.544.11.782-.19.45-.57.954-1.097 1.436-1.642.086.03.172.062.258.094l.79 1.934c.906-.158 1.825-.316 2.745-.477l.102.142z"/></svg>