<svg xmlns="http://www.w3.org/2000/svg" width="32" height="32"><path fill-rule="evenodd" clip-rule="evenodd" d="M19.53 14.817c-3.916-1.02-6.69-1.05-6.81-2.716-.07-.986 1.13-1.8 3.49-1.837 2.944-.05 4.202 2.19 4.202 2.19h2.894V5.326h-2.894v1.417c-.497-.437-1.893-1.417-4.414-1.417-2.672 0-5.606.39-6.98 2.85-1.438 2.572-.99 6.606 3.668 7.665 4.657 1.06 5.82 1.06 6.245 2.366s.447 3.087-2.47 3.352c-3.916.352-5.256-2.117-5.256-2.117H8.347v7.022h2.858v-1.376s.47 1.534 4.375 1.587c3.903.053 6.647-1.47 7.727-4.198 1.2-3.035-.388-6.775-3.776-7.658z"/></svg>