<svg xmlns="http://www.w3.org/2000/svg" width="32" height="32"><path fill-rule="evenodd" clip-rule="evenodd" d="M19.084 6.837s-.13.714-.293.908c-.16.196-.616.164-1.038 0-.424-.162-.845-.194-1.267-.03-.422.16-.78.132-.714-.356.065-.49.325-.978.682-1.01.358-.032 1.105-.163 1.203-.358.098-.193-.072-.454-.23-.715-.16-.26-.452-.648-.582-.552-.13.1-.487-.13-.617.26s-.845 1.397-1.365 1.948c-.52.554-1.2 1.593-.843 2.242.357.65.942.683 1.722.683h1.158s.27.228.238.52c-.033.292.26 2.696.26 3.51s-.033.844.195.844h.39s-.162.65-.65 2.272c-.486 1.625-.876 2.86-1.136 3.185-.26.324-.422.583-.422 1.006 0 .422-.13 1.07-.325 1.43-.195.357-.26.877-.52 1.137s-.26.326-.357.715c-.097.39-.523.877-.65 1.07-.128.197-1.808 1.48-1.906 1.84-.097.354 1.568.527 2.297.436.877-.11 1.13-.007 1.382-.434.27-.46.87-1.5 1.185-2.295.18-.454-.097-.812.292-1.332.39-.52 1.007-1.396 1.43-1.884.42-.49.42-1.072.778-1.788.357-.714.78-1.56 1.105-1.493.324.063.746.453 1.332 1.07.584.616.52.94.617 1.526.098.584.227 1.332.52 1.852s.455 1.008.52 1.462c.064.455-.098.876 0 1.397.098.52.553.94.812 1.364.26.422 1.268.39 2.11.422.845.033 1.626.164 1.397-.227-.228-.39-1.038-.91-1.267-1.04-.227-.13-.357-.13-.55-.81-.196-.683-.847-3.704-1.042-4.776-.192-1.073-.647-2.372-1.038-3.087-.39-.714-1.592-2.86-1.592-2.86l-.098-.29h.39s-.16-.683-.26-.845c-.097-.163-.487-1.43-.552-2.08-.064-.65-.195-1.07.13-1.038.325.03 1.56 0 2.308-.195.746-.195.682-.26.713-.877.034-.617 0-1.787-.03-2.566-.033-.78-.293-1.008-.488-1.104-.193-.097-.812.13-.908.325-.098.193-.488.486-.13.746s.42.39.616.454c.195.065.195.195.195.357 0 .164.13.91-.195 1.04-.324.13-1.268.033-1.656-.064-.39-.097-1.17-.812-1.494-.78s-.617-.292-.65-.714c-.03-.422.586-.162.682-.812.098-.648.586-2.092-.81-2.438-.78-.19-1.366.424-1.562 1.366-.146.697-.002 1.004.584 1.46z"/><path fill-rule="evenodd" clip-rule="evenodd" d="M15.69 6.7c-.182.457-1.13 2.388-1.13 2.388s-1.274-.71-3.404-.71c-1.867 0-2.984.92-3.307 1.952-.175.558-.55 2.178 1.467 3.162 1.407.687 3.27 1.458 4.727 2.437 1.895 1.27 2.796 3.31 2.44 5.838-.408 2.903-2.43 5.53-5.44 5.79-2.39.208-5.97-.533-6.873-1.306.274-.812.557-1.964.777-2.62 1 .49 2.704.93 4.16 1.104 2.744.324 4.13-.903 4.53-2.427.283-1.08.33-2.193-.12-2.997-1.086-1.95-3.356-2.232-5.36-3.224-3-1.485-3.674-3.522-3.292-5.743.436-2.533 1.907-3.784 4.16-4.334 2.113-.517 4.562-.302 6.664.687z"/></svg>