<svg xmlns="http://www.w3.org/2000/svg" xmlns:xlink="http://www.w3.org/1999/xlink" viewBox="0 0 32 32" version="1.1" role="img" aria-labelledby="at-svg-stumbleupon-1011" title="StumbleUpon" alt="StumbleUpon" style="width: 16px; height: 16px;" class="at-icon at-icon-stumbleupon"><title id="at-svg-stumbleupon-1011">StumbleUpon</title><g><path d="M17.17 14.29l1.5.7 2.234-.665v-1.558C20.904 10.12 18.67 8 16 8c-2.658 0-4.904 2.108-4.904 4.732v7.104c0 .654-.527 1.17-1.17 1.17-.64 0-1.168-.516-1.168-1.17v-3.002H5v3.048c0 2.716 2.2 4.916 4.916 4.916 2.692 0 4.915-2.166 4.915-4.847v-7.01c0-.643.528-1.17 1.17-1.17.642 0 1.17.527 1.17 1.17v1.35zm6.072 2.544v3.15c0 .643-.527 1.16-1.17 1.16-.64 0-1.168-.517-1.168-1.16v-3.092l-2.234.664-1.5-.7v3.072c0 2.693 2.21 4.87 4.914 4.87 2.716 0 4.916-2.2 4.916-4.916v-3.048h-3.758z" fill-rule="evenodd"></path></g></svg>
