<svg width="32" height="32" xmlns="http://www.w3.org/2000/svg"><g fill-rule="evenodd"><path d="M24.755 11.67V7.724c0-.77-.48-1.25-1.06-1.25h-2.213c-.866 0-1.06.576-1.06.865 0 .192-.19.288-.384.192-.674-.674-1.348-1.25-2.02-1.925-.675-.674-1.445-.77-1.926-.77-.48 0-1.155.193-1.925.77-2.213 2.02-4.426 4.234-6.64 6.255-.288.29-1.347 1.25-1.347 2.79v10.01a2.486 2.486 0 0 0 2.502 2.5H23.31a2.485 2.485 0 0 0 2.502-2.5v-9.913c.097-2.118-1.057-3.08-1.057-3.08m-.386 12.99c0 .48-.386.867-.867.867H8.876a.863.863 0 0 1-.866-.866v-9.91c0-.675.384-1.156.77-1.54 2.213-2.118 4.426-4.235 6.64-6.256.48-.48 1.058-.48 1.54 0 2.213 2.117 4.522 4.234 6.64 6.255.385.288.77.77.77 1.54v9.91"/><path d="M10.705 18.02h4.523V13.5h-4.523v4.523zm2.212-.384c-.962 0-1.828-.77-1.828-1.828 0-1.06.768-1.83 1.827-1.83.962 0 1.828.77 1.828 1.733 0 1.06-.768 1.926-1.828 1.926zM21.194 15.615c.576-.192.77-.673.576-.866-.096-.29-.576-.482-1.058-.193.288-.578 0-.963-.29-1.06-.288-.095-.77.097-.865.77-.096-.77-.674-.865-.963-.77-.288.097-.48.578-.19 1.06-.578-.29-.964 0-1.06.288-.097.29.096.866.866.866-.77.194-.867.675-.77.964.096.288.576.48 1.058.192-.288.578 0 .962.29 1.06.288.095.77-.098.865-.77.19.672.674.864.962.672.29-.097.48-.577.192-1.06.577.29.962 0 1.06-.288.097-.287-.096-.672-.673-.865M21.77 21.1h-.48c-.19-.962-.576-2.117-1.636-2.117-1.058 0-1.442 1.155-1.636 2.117h-.48c-.097 0-.192.098-.192.193s.096.192.192.192h.385c-.096.577-.096 1.06-.096 1.06h.48l-.193 2.02h.193l.385-2.02h1.732l.385 2.02H21l-.19-2.02h.48s0-.482-.097-1.06h.386c.095 0 .19-.097.19-.192.194-.096.098-.193 0-.193m-.96.673H18.5s-.193-.385 1.153-.385c1.348.097 1.156.385 1.156.385M14.938 19.85v-.48h-4.04v.48c-.483 0-.867.48-.867.962 0 .48.385.866.867.963v2.79h4.04v-2.79a.965.965 0 0 0 .964-.963c-.096-.482-.577-.867-.962-.962zm-2.983 3.753c0 .096-.096.19-.192.19-.097 0-.193-.095-.193-.19v-1.347c0-.097.096-.193.193-.193.096 0 .192.097.192.193v1.347zm1.25 0c0 .096-.095.19-.19.19-.097 0-.194-.095-.194-.19v-1.347c0-.097.098-.193.194-.193s.192.097.192.193v1.347zm1.156 0c0 .096-.095.19-.19.19-.098 0-.194-.095-.194-.19v-1.347c0-.097.096-.193.193-.193.095 0 .19.097.19.193v1.347z"/></g></svg>