<svg xmlns="http://www.w3.org/2000/svg" width="32" height="32"><path d="M21.27 6.25c.27.49.18.75.28 1.12.05.2.11.39.19.63.12-.1.21-.17.3-.24 1.3-1.03 2.96-.93 3.98.25.39.44.6.98.66 1.54.08.81.16 1.62.1 2.43-.17 2.56-.24 5.11-.21 7.68 0 .41.02.81 0 1.22-.05.78-.56 1.31-1.34 1.41-.69.09-1.38.02-2.01-.27-.43-.19-.82-.18-1.19.07-.84.56-1.75.56-2.69.42-.74-.11-1.47-.05-2.25.23.93.32 1.35.938 1.43 1.81.09.97-.52 1.78-1.47 2.03-.17.04-.31.16-.48.23-.18.08-.37.19-.56.19-1.28-.01-2.44.36-3.54.98-.07.04-.16.05-.24.05-.9 0-1.8.03-2.7-.01-.23-.01-.47-.21-.66-.37-.51-.44-1.04-.84-1.68-1.09-.58-.24-1.09-.6-1.47-1.11-.49-.68-.54-1.39-.2-2.15.24-.52.44-1.05.65-1.57.03-.09.06-.23.01-.3-.53-.76-.67-1.64-.77-2.52-.2-1.83-.15-3.66.16-5.48.14-.86.06-1.73-.17-2.58-.3-1.09-.23-2.14.33-3.14.94-1.68 3.26-1.95 4.58-.55.01.01.04.02.06.03.16-.33.32-.67.5-.99.13-.23.33-.42.46-.65.44-.77 2.15-1.02 3.4-.3.31.18.58.4.89.57.53.28.91.23 1.3-.21.97-1.05 3.63-.65 4.35.64zm-3.34 8.5h-.03c.04.69.07 1.39.13 2.08.1 1.14.26 2.28.33 3.42.03.51.24.85.65 1.1.15.09.29.18.44.26.82.45 1.56.21 1.97-.64.33-.67.37-1.38.27-2.1-.11-.77-.27-1.54-.37-2.31-.06-.44-.05-.9-.03-1.34.022-.27.14-.54.47-.57.32-.03.45.23.52.48.08.26.132.54.15.82.07 1.01.11 2.03.2 3.05.06.688.15 1.39.54 2 .302.46.73.64 1.27.55.522-.09.852-.39.962-.91.05-.25.1-.51.1-.76-.01-1.7-.04-3.41-.06-5.11-.01-1.32.01-2.63.31-3.93.21-.93-.03-1.8-.74-2.47-.77-.74-1.76-.61-2.34.28-.19.29-.35.59-.55.87-.41.57-.93.52-1.24-.11-.03-.07-.07-.14-.07-.21-.02-.53-.08-1.06-.06-1.59.02-.69-.24-1.18-.86-1.46-.51-.23-1.04-.24-1.57-.13-1.03.2-1.4.65-1.47 1.68-.02.27-.07.55-.13.82a.487.487 0 0 1-.462.39c-.24.01-.45-.07-.55-.31-.07-.16-.11-.35-.15-.52-.06-.3-.08-.6-.14-.89-.11-.54-.38-.98-.85-1.27-1.23-.73-3.07.1-3.32 1.5-.08.44-.06.9-.14 1.34-.09.47-.22.94-.42 1.36-.17.36-.55.32-.68-.07-.09-.27-.12-.59-.1-.88.1-.93-.42-1.77-1.24-1.96-.98-.25-1.95.26-2.25 1.16-.18.52-.03 1.02.13 1.51.34 1 .34 2.03.14 3.04-.34 1.71-.76 3.42-.53 5.18.16 1.19.27 2.33 1.47 3.14 1.19.8 2.27.69 3.46.22.27-.11.39-.33.36-.62-.02-.27-.06-.528-.07-.8-.12-1.86-.24-3.72-.35-5.58-.03-.5-.06-1.01-.02-1.5.06-.57.49-.74.98-.42.3.2.45.49.48.84.03.39.03.79 0 1.19-.15 1.76-.07 3.51.32 5.242.31 1.37 1.01 2.07 2.25 2.27 1.49.25 2.42-.6 2.28-2.1-.1-1.1-.24-2.19-.33-3.29-.06-.81-.09-1.62-.11-2.44-.01-.35.03-.7.31-.94.12-.1.35-.2.48-.15.12.04.24.27.25.43.03.368.01.768.01 1.158zm-5.11 12.16c-.25-.5-.53-.95-.69-1.44-.2-.64-.02-1.24.5-1.68.54-.45 1.15-.54 1.76-.2.9.51 1.6 1.21 2 2.18.07.17.15.21.31.17.42-.09.71-.34.84-.75.14-.42.07-.81-.27-1.08a2.62 2.62 0 0 0-.92-.5c-1.23-.33-2.47-.49-3.75-.35-1.18.13-2.34.29-3.31 1.07-.08.07-.22.07-.35.11-.1-.5.08-.87.3-1.15-.53-.23-1.06-.46-1.59-.68-.08-.03-.24-.05-.28 0-.27.29-.59.56-.8.89-.39.62-.36 1.29.02 1.92.33.54.88.65 1.49.71-.04-.43.14-.74.44-.98.28-.23.6-.17.74.16.1.23.14.49.18.74.08.52.26 1 .79 1.19.95.35 1.82.09 2.59-.33zm1.9-.22c.14-.04.42-.09.66-.21.33-.15.35-.28.13-.57-.26-.35-.55-.68-.81-1.03-.44-.58-.47-.59-1.12-.25-.06.03-.11.06-.17.1-.52.33-.61.85-.21 1.34.36.42.84.59 1.52.62z"/></svg>