<svg xmlns="http://www.w3.org/2000/svg" width="32" height="32"><g><path d="M16.31 7.4c.01-.01.02-.01.03-.02v-.01l-.03.03zM19.32 6.37c-.14-.18-.36-.29-.53-.43-.15.03-.29.05-.44.08-.67.45-1.33.91-2 1.37.2.3.42.6.61.91 1.97 3.2 2.83 6.65 2.35 10.4-.34 2.59-1.31 4.95-2.83 7.17l2.48 1.59c.1-.17.17-.3.26-.42 4.32-5.7 4.37-14.95.1-20.67zM11.4 18.24c-.6-.03-.85.2-.99.77-.48 1.99-1 3.98-1.49 5.97-.06.22-.05.45-.08.76.95 0 1.82.03 2.69-.02.21-.01.52-.22.59-.41.78-2.28 1.52-4.57 2.33-7.05-1.13-.01-2.09.03-3.05-.02zM11.95 13.94c1.29-.03 2.28-1.09 2.27-2.43-.01-1.31-1.07-2.37-2.35-2.36-1.26 0-2.34 1.11-2.34 2.39 0 1.34 1.11 2.44 2.42 2.4z"/></g></svg>