<svg width="32" height="32" xmlns="http://www.w3.org/2000/svg"><g fill-rule="evenodd"><path d="M5.047 22.157c.024-.112.096-.28.162-.374l5.6-7.998 2.05-1.11 4.38-4.8.054-.17a.278.278 0 0 1 .126-.145l.157-.076a.22.22 0 0 0 .11-.148l.037-.255a.09.09 0 0 1 .116-.075s.446.1.873.4c.427.3.675.684.675.684a.09.09 0 0 1-.032.134l-.227.123a.22.22 0 0 0-.102.153l-.018.173a.278.278 0 0 1-.092.168l-.142.11-3.012 5.758-.342 2.306-5.6 8a1.092 1.092 0 0 1-.298.28s-.928.815-2.927-.585c-2-1.4-1.55-2.553-1.55-2.553z"/><path d="M22.458 25.293a1.204 1.204 0 0 1-.296-.28l-5.6-8-.342-2.305-3.013-5.757-.14-.11a.278.278 0 0 1-.094-.167l-.017-.173a.22.22 0 0 0-.102-.153l-.227-.123a.09.09 0 0 1-.03-.135s.246-.386.673-.685c.427-.3.873-.4.873-.4a.09.09 0 0 1 .116.076l.037.256a.22.22 0 0 0 .11.148l.156.076c.052.025.11.09.126.144l.054.17 4.38 4.8 2.05 1.11 5.6 8c.066.094.144.26.162.374 0 0 .45 1.152-1.55 2.55-1.998 1.4-2.928.585-2.928.585z" opacity=".7"/></g></svg>