<svg width="32" height="32" xmlns="http://www.w3.org/2000/svg"><path d="M25.5 16.44a7.33 7.33 0 0 1-1.584.18c-2.735 0-4.84-1.85-4.84-5.068 0-1.578.63-2.398 1.52-2.398.845 0 1.41.736 1.41 2.23 0 .848-.235 1.78-.408 2.33 0 0 .843 1.423 3.147.986.49-1.052.755-2.415.755-3.61C25.5 7.87 23.807 6 20.703 6c-3.19 0-5.056 2.376-5.056 5.51 0 3.104 1.497 5.768 3.967 6.982-1.04 2.013-2.36 3.786-3.738 5.122-2.5-2.93-4.76-6.836-5.688-14.46H6.5c1.704 12.698 6.783 16.74 8.125 17.517.76.443 1.414.422 2.108.043 1.09-.6 4.364-3.772 6.18-7.487a12.57 12.57 0 0 0 2.587-.286v-2.5" fill-rule="evenodd"/></svg>