<svg xmlns="http://www.w3.org/2000/svg" width="32" height="32"><path d="M15.5 27.35c-.017 0-.035 0-.052-.002a.623.623 0 0 1-.484-.302c-.037-.062-3.68-6.14-5.214-7.728-.42-.436-.95-.89-1.464-1.327-1.52-1.3-3.09-2.644-2.665-4.186.3-1.084 1.332-2.18 2.727-2.18a2.7 2.7 0 0 1 1.167.27C8.684 9.43 7.864 6.2 8.68 4.86c.268-.44.68-.692 1.194-.733 1.33-.1 2.453.92 3.355 3.044.185-.27.448-.47.82-.548.808-.17 1.515.27 2.048.99.046-.177.11-.34.193-.48a1.37 1.37 0 0 1 .988-.68c.604-.1 1.205.18 1.824.835a.908.908 0 0 1 .738-.348c1.59.067 2.66.72 4.46 2.687 1.92 2.103 3.546 7.618 2.806 12.173a.626.626 0 0 1-.45.502c-2.392.662-8.97 2.82-10.68 4.827a.63.63 0 0 1-.476.22zM8.347 12.875c-.734 0-1.35.642-1.52 1.262-.215.776 1.106 1.906 2.27 2.904.536.458 1.09.932 1.55 1.41 1.33 1.375 3.964 5.612 4.98 7.278 2.58-2.17 8.673-4.044 10.3-4.52.562-4.32-1.07-9.117-2.55-10.737-1.55-1.693-2.347-2.148-3.237-2.256.03.192.105.52.303 1.05.693 1.255 1.197 2.608 1.22 2.666a.625.625 0 0 1-1.138.513c-.03-.06-.78-1.463-1.254-2.743-1.08-1.957-1.696-2.017-1.765-2.017-.076.01-.102.02-.14.082-.374.637.136 2.832.6 4.115a.624.624 0 0 1-1.17.442 37.96 37.96 0 0 1-.367-.992c-.44-1.22-1.257-3.494-2.036-3.494-.16.023-.458.465-.242 2.22a35.51 35.51 0 0 1 .585 2.872.625.625 0 0 1-1.218.274c-.017-.06-.425-1.512-.608-2.994-.77-3.047-1.815-4.838-2.857-4.838-.19.01-.248.046-.304.14-.688 1.127.768 5.84 2.02 8.826a.624.624 0 0 1-1.125.54c-.703-1.29-1.52-2-2.298-2z"/></svg>