<svg xmlns="http://www.w3.org/2000/svg" width="32" height="32"><path d="M7.64 21.88l2.1 3.66.55-4.22c.03-.22.05-.38.07-.46a.55.55 0 0 1 .13-.25c.07-.08.17-.14.31-.16.1-.02.2-.01.3.02s.18.09.24.16c.07.07.11.15.12.24.01.06.02.12.01.19 0 .07-.01.14-.02.21l-.03.21-.66 4.1c-.02.16-.04.31-.07.45-.03.14-.06.27-.11.38a.804.804 0 0 1-.61.48.85.85 0 0 1-.42-.01.803.803 0 0 1-.32-.19c-.09-.09-.17-.19-.25-.31s-.15-.25-.23-.39l-2.14-3.52a1.96 1.96 0 0 1-.11-.19c-.04-.06-.07-.13-.11-.2-.03-.07-.05-.14-.06-.188a.49.49 0 0 1 .09-.4c.09-.13.21-.22.38-.25.2-.04.36 0 .47.1.1.108.22.288.37.538zM15.98 18.87c.62 0 1.15.13 1.59.38.44.25.78.61 1.01 1.07.23.46.34 1 .34 1.63 0 .46-.06.88-.19 1.26s-.31.7-.56.98c-.25.28-.56.49-.92.64s-.78.22-1.25.22-.89-.07-1.25-.23c-.37-.15-.68-.36-.92-.64s-.43-.6-.56-.99c-.13-.39-.19-.8-.19-1.25 0-.46.06-.88.2-1.26.13-.38.32-.71.57-.98.25-.27.55-.47.91-.62.36-.14.77-.21 1.22-.21zm1.72 3.07c0-.44-.07-.81-.21-1.14-.14-.33-.34-.56-.6-.73-.26-.16-.56-.25-.9-.25-.24 0-.46.05-.67.14s-.38.22-.53.4c-.15.17-.27.4-.35.67-.09.27-.13.57-.13.91 0 .34.04.65.13.92s.21.5.36.68c.16.18.34.31.54.4.2.09.42.13.66.13.31 0 .59-.08.85-.23.26-.16.46-.39.62-.72.15-.31.23-.71.23-1.18zM20.49 25.01l1.72-1.62-.73-1.93c-.07-.19-.11-.35-.14-.48a.89.89 0 0 1 0-.36c.02-.11.1-.2.22-.26.12-.07.25-.08.4-.05.16.03.28.11.35.23.07.12.16.32.26.62l.56 1.61 1.24-1.21c.1-.1.19-.19.27-.26.07-.07.14-.13.2-.18s.13-.07.19-.09c.07-.012.15-.012.23 0 .15.03.26.1.34.22.07.108.1.23.07.35-.04.18-.19.4-.47.65l-1.522 1.46.81 2.18c.08.19.12.35.15.47s.03.23.01.33c-.02.09-.06.17-.12.24a.464.464 0 0 1-.228.14.59.59 0 0 1-.29.01c-.11-.03-.2-.07-.27-.13s-.11-.14-.15-.21c-.03-.08-.09-.23-.18-.46l-.67-1.84-1.45 1.42-.24.24c-.05.05-.1.09-.16.13-.06.04-.13.07-.2.08-.07.01-.16.01-.25-.01a.53.53 0 0 1-.33-.21.56.56 0 0 1-.06-.41c.04-.21.19-.44.44-.67zM18.98 7.02c.06-.25.11-.5.11-.77 0-1.7-1.38-3.08-3.08-3.08a3.08 3.08 0 0 0-3.08 3.08c0 .25.04.49.1.73h-.01l1.83 9.63.04-.01c.09.55.55.98 1.13.98.58 0 1.04-.43 1.13-.98h.02l1.81-9.58z"/></svg>