<svg width="32" height="32" xmlns="http://www.w3.org/2000/svg"><path d="M18.523 18.743v6.877h1.892v-6.877h-1.892zm5.316 0V16.7h-1.893v2.043h-1.142v1.29h1.142v4.085c0 1.34 1.272 1.592 2.192 1.592.358 0 .92-.068 1.08-.09v-1.472s-.363.06-.66.06c-.41 0-.717-.108-.72-.63v-3.544h1.38v-1.29h-1.38zm-3.425-.48V16.7h-1.892v1.562h1.892zm-8.2-.24s1.11-1.322 2.644-1.322c1.532 0 2.642 1.326 2.642 2.914 0 3.764-5.286 6.096-5.286 6.096S6.93 23.378 6.93 19.614c0-1.588 1.005-2.913 2.644-2.913 1.638 0 2.642 1.322 2.642 1.322zm3.755-2.704l2.553-8.08H16.24l-1.47 5.466-1.412-5.465h-2.163l-1.35 5.497L8.34 7.24H6l2.553 8.08h2.312l1.35-5.436 1.473 5.435h2.282zM26 11.835C26 8.732 24.536 7.04 22.038 7c-2.473-.038-4.092 1.978-4.085 4.265.004 1.21.546 4.234 4.115 4.234 2.724 0 3.784-2.246 3.784-2.703H23.9c0 .12-.51 1.05-1.743 1.05-1.856 0-2-1.493-2.012-2.01.335.008 5.856 0 5.856 0zm-2.1-1.412h-3.755c0-.107.046-1.687 1.862-1.712 1.53-.02 1.892 1.472 1.892 1.712z" fill-rule="evenodd"/></svg>