<svg width="32" height="32" xmlns="http://www.w3.org/2000/svg"><g fill-rule="evenodd"><path opacity=".5" d="M8 10h16v16H8z"/><path d="M19.757 4.99c1.872 2.222-.154 3.977-2.1 4.68L21 9l1 1h2v2h-7v6h7v2h-7v6h-2v-6H8v-2h7v-6H8v-2h2l1-1 3.343.67c-1.946-.703-3.972-2.458-2.1-4.68C14.69 2.09 15.99 6.11 15.996 10c.015-3.89 1.314-7.912 3.76-5.01zM16.69 9.188c1.908-1.7 3.153-2.576 2.402-3.533-.752-.958-1.885.628-2.4 3.533zm-1.38 0c-1.908-1.7-3.153-2.576-2.402-3.533.752-.958 1.885.628 2.4 3.533z"/></g></svg>