<svg xmlns="http://www.w3.org/2000/svg" width="32" height="32"><path fill-rule="evenodd" clip-rule="evenodd" d="M16.47 11.596c.18-1.63.353-3.137.512-4.645.14-1.33 1.586-2.358 3.223-2.083 1.504.254 2.604 1.717 2.355 3.162-.742 4.298-1.514 8.59-2.28 12.884-.214 1.21-.374 2.44-.692 3.623-.34 1.27-1.408 1.947-2.676 1.88-1.35-.07-2.367-.82-2.564-2.122-.104-.686.1-1.428.222-2.135.158-.902.33-1.807.586-2.684.14-.473-.008-.76-.278-1.098-1.808-2.266-3.605-4.54-5.4-6.816-.998-1.26-.852-3.04.322-4.04 1.237-1.052 2.923-.99 4.007.304.88 1.05 1.59 2.242 2.375 3.373.08.112.162.222.29.396z"/></svg>