<svg width="32" height="32" xmlns="http://www.w3.org/2000/svg"><path d="M16 27c6.075 0 11-4.925 11-11S22.075 5 16 5 5 9.925 5 16s4.925 11 11 11zm-1.14-5.674v-4.163l-3.205-4.968a10.41 10.41 0 0 1-.596-1.047c-.117-.25-.175-.47-.175-.654 0-.304.118-.567.354-.788.234-.22.525-.33.87-.33.365 0 .64.102.83.308.187.206.47.616.845 1.23l2.453 3.984 2.48-3.983.376-.618c.1-.167.213-.324.335-.47.122-.146.258-.258.407-.336.15-.076.33-.115.546-.115.334 0 .613.11.837.327.224.218.336.47.336.756 0 .233-.057.466-.17.698a9.06 9.06 0 0 1-.582.967l-3.286 5.04v4.163c0 .543-.125.95-.376 1.217-.25.27-.57.403-.958.403-.393 0-.713-.133-.957-.398-.245-.266-.367-.673-.367-1.222z" fill-rule="evenodd"/></svg>