<svg xmlns="http://www.w3.org/2000/svg" width="32" height="32"><path d="M3.94 21.77V10.23h3.84l.6 6.56.91-6.56h3.49v11.54H10.5l.04-8.46h-.4l-1.2 8.46H7.41l-.79-8.41h-.37v8.41zM17.36 13.12c-1.86 0-3.37 1.94-3.37 4.32 0 2.39 1.51 4.32 3.37 4.32s3.37-1.94 3.37-4.32c0-2.38-1.51-4.32-3.37-4.32zm0 6.51c-.85 0-1.53-.98-1.53-2.19s.69-2.18 1.53-2.18c.84 0 1.53.98 1.53 2.18 0 1.21-.68 2.19-1.53 2.19zM25.27 12.94c-.61.01-1.15.37-1.59.94v-3.64h-2.02v11.53h2.02v-1.06c.49.66 1.1 1.07 1.78 1.06 1.48-.03 2.65-2.03 2.6-4.47-.06-2.44-1.3-4.39-2.79-4.36zm-.2 6.37c-.73 0-1.32-.86-1.32-1.93 0-1.06.59-1.93 1.32-1.93.73 0 1.32.87 1.32 1.93s-.59 1.93-1.32 1.93z"/></svg>