<svg xmlns="http://www.w3.org/2000/svg" width="32" height="32"><path d="M25.34 6.32c-1.82.62-3.65 1.27-5.41 2.05-.72.32-1.23.42-1.97-.41 1.41-.82 1.94-1.97 3.46-2.38.4-.11 1.4.08 1.33-.48-.32-.55-.88-.37-1.15-.22-1.13.6-2.29 1.22-3.26 2.04-1.3 1.08-2.52 2.2-4.32 2.23-.43-.76-.8-1.62-1.36-2.33-.28-.36-.98-.72-1.35-.61-.38.11-.65.77-.85 1.24-.13.3-.06.7-.07 1-1.1-.52-2.12-1.09-3.2-1.44-.45-.15-1.26 0-1.52.32-.27.33-.18 1.09-.01 1.57.19.56 1.07.98 1.4 1.47-1.27 1.44.54 2.22.98 3.15-1.26.57-1.52 1.28-1.32 2.34.21 1.05.52 1.3 1.5.84.52-.25 1.01-.56 1.71-.96-1.8 3.45-1.57 6.06.84 8.03 1.6 1.31 3.43 2.33 5.17 3.46.12.08.43.06.52-.04.11-.11.16-.38.1-.55-.06-.22-.23-.41-.37-.6-.69-.94-.79-1.86-.46-3.05.28-1.01.01-2.18-.08-3.28-.02-.34-.24-.67-.44-1.19 1.19 0 2.02-.78 3.27 0-.36 1.19-.15 2.22.78 2.74.9.5 1.98.53 2.83-.3.76-.73.46-1.82-.09-2.81 1.12.33 2.16.228 2.48-.67.27-.762.48-1.67.33-2.44-.21-1.04-.95-1.97-1.18-3.02-.31-1.48-.89-2.69-2.32-3.52 1.12-.37 1.98-.98 3.09-1.2.33-.07.87.19 1.23.17.4-.02.86-.27.86-.86-.35-.53-.84-.4-1.15-.29zM8.4 11.41c1.17-1.45-1.15-1.47-.99-2.59 1-.41 1.66.24 2.33.78.68.55 1.31 1.16 1.94 1.73 1.54-.87-.53-1.93.28-2.82 1.12.86 1.24 2.03 1.15 3.25-.06.7-1.7 1.29-2.49.89-.75-.36-1.44-.79-2.22-1.24zm5.51 7.52c-.88.4-1.72.31-2.39-.24-.7-.57-.82-1.06-.48-2.4.37 1.53 1.56 2.13 2.87 2.64zm-.6 3.73c-2.04.2-2.96-.29-3.61-2.02 1.8.96 3.55 1.54 5.39-.24-.23 1.62-.71 2.15-1.78 2.26zm2.26 3.44l.66.64s-.28.05-.8-.41-.23-.88-.23-.88l.37.65zm-1.83-8.63c-.72-.21-1.19-1.28-1.76-1.96l.24-.2c1.93.47 1.93.47 1.58-1.36 1.19 1.15 3.85 1.81 3.44 3.3-1.55-.51-2.54.5-3.5.22zm.77-5.45l.19-.22 3.1 2.69c-1.29-.61-2.62-1.15-3.29-2.47zm4.06 1.17c-1.49-.41-2.37-1.56-2.37-3.1 0-1.19.57-1.15 1.21-1.03 1.56.28 2.61 1.26 2.68 2.77.04 1.08-.23 1.72-1.52 1.36zm4.25-1.84l-2.8-1.93c1.66-.21 2.43.37 2.8 1.93z"/></svg>