<svg width="32" height="32" xmlns="http://www.w3.org/2000/svg"><g fill-rule="evenodd"><path d="M25.914 16.686c-.395-.637-1.002-1.047-1.805-1.232v-.04a3.486 3.486 0 0 0 1.306-1.147c.35-.492.518-1.07.518-1.723 0-.663-.098-1.242-.303-1.73a3.152 3.152 0 0 0-.85-1.198 3.655 3.655 0 0 0-1.282-.707 5.394 5.394 0 0 0-2.05-.21v1.502h.45c.672 0 1.232.195 1.682.582.45.385.672.965.672 1.738 0 .38-.062.72-.205 1.018a2.24 2.24 0 0 1-.55.744 2.31 2.31 0 0 1-.804.445c-.303.1-.63.15-.96.15h-.286v1.384h.55c.394 0 .763.053 1.106.176.346.113.64.287.887.53.252.228.45.524.602.87.152.342.225.742.225 1.187a2.736 2.736 0 0 1-.86 2.047c-.26.238-.565.42-.913.554-.35.122-.72.185-1.104.185h-.492v1.492c.156.004.322.018.492.018.617 0 1.205-.096 1.764-.28.55-.185 1.04-.45 1.45-.82.41-.368.74-.82.983-1.374.242-.55.363-1.183.363-1.9 0-.87-.197-1.624-.586-2.264zM21.012 8.678H5.672c.048.03.107.056.15.092.44.293.782.672 1.032 1.135.05.094.09.195.13.297h14.028V8.678zM5.672 15.576s.886.26 1.357.688h13.98V14.88H7.063c-.504.468-1.39.696-1.39.696zM6.274 22.914a5.08 5.08 0 0 1-.773.408h15.512v-1.51H7.38c-.283.43-.647.8-1.106 1.102z"/><path d="M14.732 12.42h-2.5s-.57 2.46-.53 3.514c.04 1.06.697 4.127.697 4.172 0 .045 1.082-1.125 1.082-1.125l1.25 1.07s-.61-3.017-.586-3.99c.017-.973.586-3.64.586-3.64z"/><path d="M14.515 12.06h-2.502s-.566 2.458-.52 3.517c.045 1.047.7 4.123.7 4.164 0 .042 1.07-1.126 1.07-1.126l1.252 1.076s-.6-3.018-.574-3.988c.018-.985.575-3.64.575-3.64z"/></g></svg>