<svg xmlns="http://www.w3.org/2000/svg" xmlns:xlink="http://www.w3.org/1999/xlink" preserveAspectRatio="xMidYMid" class="hide">
  <path id="compare-arrows" d="M17.997,5.963 L11.426,5.963 L13.979,8.516 L12.565,9.930 L9.029,6.395 L9.029,6.395 L8.597,5.963 L8.182,5.963 L8.182,5.547 L7.615,4.980 L8.182,4.413 L8.182,3.963 L8.632,3.963 L9.029,3.566 L9.029,3.566 L12.565,0.031 L13.979,1.445 L11.461,3.963 L17.997,3.963 L17.997,5.963 ZM8.939,11.574 L9.371,12.005 L9.755,12.005 L9.755,12.390 L10.354,12.988 L9.755,13.586 L9.755,14.006 L9.336,14.006 L5.404,17.938 L3.990,16.524 L6.508,14.006 L0.003,14.006 L0.003,12.005 L6.543,12.005 L3.990,9.452 L5.404,8.038 L8.939,11.574 L8.939,11.574 Z" />
  <path id="compare-close" d="M8.389,7.000 L13.713,12.324 C14.096,12.708 14.096,13.329 13.713,13.713 C13.329,14.096 12.708,14.096 12.324,13.713 L7.000,8.389 L1.676,13.713 C1.292,14.096 0.670,14.096 0.287,13.713 C-0.096,13.329 -0.096,12.708 0.287,12.324 L5.611,7.000 L0.287,1.676 C-0.096,1.292 -0.096,0.670 0.287,0.287 C0.670,-0.097 1.292,-0.097 1.676,0.287 L7.000,5.611 L12.324,0.287 C12.708,-0.097 13.329,-0.097 13.713,0.287 C14.096,0.670 14.096,1.292 13.713,1.676 L8.389,7.000 Z" />
  <path id="compare-ad-icon" d="M18,3.93H11.46L14,1.41,12.56,0,8.63,3.93H8.18v.45L7.61,5l.57.57v.41h.41L9,6.36,12.56,9.9,14,8.49,11.42,5.93H18ZM9.75,12H9.37l-.43-.43L5.4,8,4,9.42,6.54,12H0v2H6.5L4,16.49,5.4,17.91,9.33,14h.42v-.41l.6-.6-.6-.6Z" />
  <path id="compare-ad-icon-rev" d="M17,0H1A1,1,0,0,0,0,1V17a1,1,0,0,0,1,1H17a1,1,0,0,0,1-1V1A1,1,0,0,0,17,0ZM9.76,14H9.34L5.4,17.94,4,16.52,6.51,14H0V12H6.54L4,9.45,5.4,8l3.54,3.53.43.44h.39v.38l.59.6-.59.6ZM18,6H11.43L14,8.52,12.56,9.93l-4-4H8.18V5.55L7.61,5l.57-.57V4h.45L9,3.57,12.56,0,14,1.44,11.46,4H18Z" />
</svg>
